<svg id="visual" viewBox="0 0 900 600" width="900" height="600" xmlns="http://www.w3.org/2000/svg" xmlns:xlink="http://www.w3.org/1999/xlink" version="1.1"><rect x="0" y="0" width="900" height="600" fill="#FFFFFF"></rect><defs><linearGradient id="grad1_0" x1="33.3%" y1="0%" x2="100%" y2="100%"><stop offset="20%" stop-color="#ffffff" stop-opacity="1"></stop><stop offset="80%" stop-color="#ffffff" stop-opacity="1"></stop></linearGradient></defs><defs><linearGradient id="grad2_0" x1="0%" y1="0%" x2="66.7%" y2="100%"><stop offset="20%" stop-color="#ffffff" stop-opacity="1"></stop><stop offset="80%" stop-color="#ffffff" stop-opacity="1"></stop></linearGradient></defs><g transform="translate(900, 0)"><path d="M0 297.5C-57.2 292.7 -114.4 287.9 -148.7 257.6C-183.1 227.4 -194.7 171.7 -215.6 124.5C-236.6 77.3 -267 38.7 -297.5 0L0 0Z" fill="#FC9414"></path></g><g transform="translate(0, 600)"><path d="M0 -297.5C62 -295.5 124.1 -293.5 148.7 -257.6C173.4 -221.8 160.7 -152.1 179.3 -103.5C197.8 -54.9 247.6 -27.5 297.5 0L0 0Z" fill="#FC9414"></path></g></svg>