<?xml version="1.0" encoding="utf-8"?>
<!-- Generator: Adobe Illustrator 23.0.5, SVG Export Plug-In . SVG Version: 6.00 Build 0)  -->
<svg version="1.1" id="svg" xmlns="http://www.w3.org/2000/svg" xmlns:xlink="http://www.w3.org/1999/xlink" x="0px" y="0px"
	 viewBox="0 0 400 182.9" style="enable-background:new 0 0 400 182.9;" xml:space="preserve">
<style type="text/css">
	.st0{fill-rule:evenodd;clip-rule:evenodd;fill:#F49414;}
	.st1{fill-rule:evenodd;clip-rule:evenodd;fill:#5C5C5C;}
	.st2{fill-rule:evenodd;clip-rule:evenodd;fill:#FC9414;}
	.st3{fill-rule:evenodd;clip-rule:evenodd;fill:#5C7860;}
</style>
<g id="svgg">
	<path id="path0" class="st0" d="M214.5,44.2c-0.1,0.3-0.2,0.3-0.4,0.1c-0.2-0.2-0.3-0.2-0.5,0c-0.1,0.2-0.2,0.2-0.2,0
		c0-0.2-0.4-0.2-1.4-0.2c-1,0-1.3,0.1-1.2,0.2c0.1,0.1,0,0.1-0.2,0c-0.2-0.2-0.3-0.2-0.3,0c0,0.1-0.1,0.2-0.2,0.2
		c-0.1,0-0.1-0.1-0.1-0.2c0.1-0.1-0.3-0.1-0.6,0c-0.1,0-0.1,0-0.2,0c-0.1,0-0.1,0.1-0.1,0.3c0,0.3-0.2,0.3-1.5,0.3
		c-0.9,0-1.5,0-1.6,0.1c-0.1,0.1-0.3,0.2-0.5,0.2c-0.2,0-0.3,0.1-0.3,0.2c0.1,0.2,0.1,0.2-0.7,0.2c-0.7,0-1.1,0.3-0.9,0.5
		c0.1,0.1,0.2,0.1,0.3-0.1c0.1-0.2,0.2-0.2,0.1,0c-0.1,0.2-0.4,0.3-1.3,0.3c-2,0-2,0.1-1.8,0.2c0.2,0.1,0.2,0.2,0,0.3
		c-0.1,0.1-0.2,0.2-0.1,0.3c0,0.1,0,0.1-0.2,0.1s-0.2-0.1-0.2-0.2s-0.1-0.1-0.3,0c-0.2,0.1-0.4,0.1-0.5,0.1c-0.1-0.1-0.2,0-0.4,0.1
		c-0.1,0.1-0.3,0.2-0.4,0.1c-0.1-0.1-0.1,0-0.1,0.2c0,0.3-0.1,0.3-1,0.4c-0.4,0-0.5,0.1-0.5,0.4c0,0.4-0.1,0.4-0.5,0.3
		c-0.3-0.1-0.5,0-0.4,0.1c0.1,0.1,0,0.2-0.2,0.1c-0.4-0.2-0.8,0.1-0.4,0.3c0.2,0.1,0.1,0.2-0.2,0.2c-0.3,0-0.4,0.1-0.3,0.3
		c0.1,0.3,0.1,0.3-0.1,0.1c-0.3-0.3-0.5-0.3-0.5,0c0,0.2,0.1,0.3,0.2,0.3c0.1,0,0.1,0.1-0.1,0.2s-0.6,0.2-0.8,0.1
		c-0.4,0-0.5,0-0.4,0.4c0,0.3,0,0.4-0.2,0.3c-0.2-0.1-0.4,0-0.5,0.1c-0.1,0.2-0.2,0.2-0.2,0c0-0.1-0.1-0.2-0.2-0.2
		c-0.1,0-0.1,0.1-0.1,0.2c0.1,0.1,0,0.1-0.2,0.1c-0.1-0.1-0.3,0-0.4,0.1c-0.1,0.1,0,0.2,0.1,0.2c0.1,0,0.1,0.1,0.1,0.2
		c-0.1,0.1-0.2,0.1-0.2,0.1c-0.1-0.1-0.2,0-0.4,0.1c-0.2,0.2-0.3,0.2-0.1,0c0.1-0.1,0.1-0.2-0.1-0.2c-0.1,0-0.2,0.2-0.2,0.4
		s0.1,0.3,0.2,0.3c0.1-0.1,0.2,0,0.3,0.1c0.1,0.1-0.1,0.2-0.3,0.2c-0.2,0-0.3,0.1-0.3,0.2c0.1,0.1,0,0.1-0.2-0.1
		c-0.2-0.2-0.3-0.3-0.3-0.2c0,0.1-0.1,0.2-0.3,0.1c-0.2-0.1-0.4,0.1-0.5,0.5c-0.2,0.5-0.3,0.6-0.6,0.4c-0.3-0.1-0.4-0.1-0.3,0.1
		c0,0.1,0.3,0.2,0.5,0.2c0.3,0,0.3,0,0.2,0.1c-0.2,0.1-0.3,0.2-0.4,0.3c-0.1,0.1-0.2,0.1-0.3,0c-0.2-0.2-0.6-0.3-0.6-0.1
		c0,0.1-0.2,0.4-0.5,0.7c-0.3,0.3-0.4,0.4-0.3,0.3c0.1-0.2,0.1-0.2-0.1-0.1c-0.1,0.1-0.2,0.3-0.1,0.5c0.1,0.2,0,0.4-0.1,0.4
		c-0.1,0-0.2-0.1-0.1-0.2c0.1-0.1-0.1,0-0.3,0.3c-0.3,0.3-0.6,0.5-0.7,0.5c-0.2,0-0.3,0.2-0.3,0.4c0,0.2,0.1,0.3,0.1,0.2
		c0.1-0.1,0.3-0.2,0.4-0.2c0.2,0,0.2,0-0.1,0.2c-0.2,0.2-0.5,0.2-0.7,0.2c-0.2-0.1-0.3,0-0.2,0.1c0.1,0.1,0,0.2-0.1,0.2
		c-0.1,0-0.2,0.1-0.2,0.3c0,0.2-0.1,0.3-0.3,0.2c-0.4-0.2-0.6,0.3-0.7,1.5c0,0.2-0.1,0.4-0.2,0.3c-0.1,0-0.1-0.3-0.1-0.5
		c0.1-0.5-0.2-0.6-0.3-0.1c-0.1,0.2-0.3,0.4-0.5,0.5c-0.2,0.1-0.3,0.2-0.3,0.4c0,0.2,0,0.3-0.2,0.2c-0.1,0-0.3,0.1-0.5,0.2
		c-0.2,0.2-0.2,0.3,0,0.2c0.1-0.1,0.2,0,0.2,0.1c0,0.2-0.1,0.3-0.2,0.4c-0.1,0.1-0.2,0.3-0.1,0.5c0.1,0.4-0.1,0.5-0.4,0.2
		c-0.1-0.1-0.3-0.1-0.4,0.1c-0.2,0.2-0.2,0.3,0,0.5c0.3,0.3,0.3,0.5,0,0.5c-0.1,0-0.1-0.1-0.1-0.2c0.1-0.1,0.1-0.2,0-0.2
		c-0.1,0-0.3,0.4-0.5,0.8c-0.2,0.5-0.5,0.9-0.7,0.9c-0.3,0.1-0.4,0.2-0.4,1.1c0,0.2-0.2,0.5-0.3,0.5c-0.2,0.1-0.3,0.2-0.3,0.3
		c0,0.1-0.1,0.2-0.3,0.2c-0.3,0-0.3,0.3-0.3,0.9c0,0.1-0.1,0.2-0.1,0.2c-0.1,0-0.1,0.2-0.1,0.5c0.1,0.3,0,0.4-0.1,0.3
		c-0.1-0.1-0.3-0.2-0.4-0.1c-0.3,0.1-0.4,0.8-0.1,0.8c0.1,0,0.1,0.1-0.1,0.2c-0.2,0.1-0.2,0.2,0,0.2c0.2,0,0.2,0,0,0.3
		c-0.1,0.1-0.3,0.2-0.4,0.2c-0.2-0.1-0.5,0.4-0.5,0.7c0,0.1,0.2,0.3,0.3,0.4c0.2,0.1,0.2,0.1,0,0.1c-0.2,0-0.4,0.1-0.4,0.3
		c-0.1,0.2-0.2,0.2-0.3,0.2c-0.2-0.1-0.4,0.3-0.4,1.1c0,0.4-0.2,0.9-0.5,1.3c-0.3,0.4-0.4,0.6-0.3,0.6c0.4-0.1,0.5,0,0.2,0.4
		c-0.3,0.4-0.3,0.4,0,0.6c0.3,0.3,0.3,0.3,0,0.2c-0.2,0-0.4,0.1-0.4,0.2c0,0.1-0.1,0.3-0.2,0.4c-0.3,0.2-0.5,1.3-0.3,1.4
		c0.1,0.1,0.2,0.2,0.2,0.3c0,0.1-0.1,0.1-0.2,0c-0.1-0.2-0.2,0.2-0.1,1c0,1.2,0,1.3-0.6,1.2c-0.2,0-0.2,0,0,0.1
		c0.3,0.1,0.3,0.6,0.1,0.6c-0.1,0-0.2,2.4-0.2,5.4c0,3,0.1,5.3,0.2,5.3c0.2-0.1,0.2,0.4-0.1,0.9c-0.2,0.3-0.2,0.4,0,0.5
		c0.1,0,0.2,0.2,0.1,0.3c-0.2,0.3-0.2,0.7,0,0.8c0.1,0.1,0.1,0.2,0,0.4c-0.1,0.3-0.1,0.4,0.2,0.6c0.2,0.2,0.4,0.5,0.4,0.8
		c0,0.3,0.1,0.6,0.2,0.8c0.1,0.2,0.1,0.2-0.1,0.1c-0.2-0.1-0.2-0.1,0,0.2c0.2,0.2,0.2,0.3,0,0.3c-0.1,0-0.2,0.1-0.2,0.2
		c0,0.1,0.1,0.1,0.2,0.1c0.2-0.1,0.2-0.1,0,0.1c-0.3,0.3-0.3,0.8,0,0.6c0.1-0.1,0.2,0.1,0.2,0.3c0,0.2-0.1,0.3-0.2,0.3
		c-0.1-0.1-0.1,0.1,0.1,0.4c0.2,0.3,0.4,0.6,0.4,0.6s0.1,0.2,0.1,0.5c0,0.3,0.1,0.6,0.3,0.6c0.2,0.1,0.2,0.2,0,0.3
		c-0.2,0.1-0.2,0.2,0.1,0.5c0.2,0.2,0.2,0.3,0.2,0.1c-0.1-0.1,0-0.3,0-0.3c0.1-0.1,0.2,0.1,0.2,0.4c0.1,0.8,0.1,1,0.3,1.3
		c0.1,0.2,0.1,0.2-0.1,0.1c-0.1-0.1-0.2,0-0.2,0.1c0,0.1,0.1,0.2,0.2,0.3c0.1,0.1,0.2,0.3,0.1,0.5c-0.1,0.3-0.1,0.3,0.2,0.1
		c0.3-0.3,0.3-0.2,0.2,0.5c-0.1,0.7,0,0.7,0.3,0.6c0.3-0.1,0.3-0.1,0,0.1c-0.3,0.2-0.3,0.3-0.1,0.5c0.2,0.2,0.3,0.2,0.4,0
		c0.1-0.1,0.1,0,0.1,0.3c0,0.3,0.1,0.7,0.3,0.8c0.1,0.1,0.2,0.3,0.2,0.4c-0.1,0.1,0.2,0.2,0.5,0.1c0.1,0,0.1,0.1,0,0.3
		c-0.1,0.2,0,0.4,0.2,0.4c0.2,0,0.2,0,0,0.2c-0.2,0.1-0.2,0.2,0.2,0.6c0.3,0.3,0.4,0.6,0.4,0.7c-0.1,0.1,0.1,0.4,0.3,0.6
		c0.2,0.2,0.4,0.5,0.4,0.6c-0.1,0.4,0.3,0.6,0.4,0.3c0.1-0.1,0.1-0.2-0.1-0.1c-0.3,0.2-0.3,0,0.1-0.3c0.2-0.2,0.3-0.2,0.2,0
		c-0.1,0.1,0,0.2,0.1,0.2c0.1,0,0.2,0.1,0.1,0.2c-0.1,0.1,0,0.3,0.1,0.5s0.2,0.3,0.1,0.4c-0.1,0.2,0.1,0.8,0.2,0.8
		c0.1,0,0.1-0.1,0.1-0.3s-0.1-0.3-0.1-0.3c-0.2,0-0.1-0.9,0.1-1.1c0.1-0.1,0.1,0,0,0.2c-0.1,0.2,0,0.5,0.2,0.8
		c0.1,0.3,0.2,0.5,0.1,0.6c-0.1,0.1,0,0.2,0.2,0.4c0.3,0.3,0.3,0.3,0,0.2c-0.2-0.1-0.1,0,0.2,0.2c0.3,0.2,0.6,0.4,0.6,0.5
		c0,0.1-0.1,0.1-0.2,0c-0.1-0.1-0.2,0-0.2,0.1c0,0.3,0.3,1,0.3,0.7c0-0.1,0.1-0.2,0.3-0.1c0.2,0.1,0.2,0.2,0.2,0.4
		c-0.1,0.2,0,0.2,0.1,0.2c0.1-0.1,0.3,0,0.3,0.1c0.1,0.1,0.1,0.2-0.1,0.1c-0.1-0.1-0.2,0-0.3,0c-0.1,0.2,0.4,0.4,0.6,0.3
		c0.1,0,0.3,0.1,0.4,0.3c0.2,0.2,0.3,0.3,0.2,0.3c-0.1,0,0,0.1,0.2,0.3c0.2,0.2,0.3,0.4,0.3,0.6c0,0.2,0.1,0.2,0.3,0.2
		c0.2-0.1,0.3,0,0.3,0.2c0,0.3,0.7,0.7,0.9,0.5c0.1-0.1,0.2,0,0.1,0.1c-0.1,0.1-0.1,0.2,0,0.3c0.1,0,0,0.1-0.1,0
		c-0.1,0-0.2,0.1-0.2,0.2c0,0.2,0.1,0.3,0.4,0.2c0.2-0.1,0.4,0,0.4,0.1c0,0.1,0,0.3,0.1,0.4c0,0.1,0.2,0.2,0.3,0.2
		c0.2,0,0.3,0.1,0.3,0.2c0,0.2,0.2,0.3,0.4,0.4c0.2,0.1,0.4,0.3,0.5,0.6c0.2,0.6,0.3,0.6,0.7,0.4c0.4-0.2,1,0.1,0.9,0.5
		c-0.1,0.4,0.3,0.8,1,1c0.3,0.1,0.5,0.2,0.5,0.3c0,0.2,0.5,0.6,0.8,0.7c0.1,0,0.3,0.2,0.5,0.3c0.2,0.2,0.4,0.3,0.5,0.3
		c0.1,0,0.3,0,0.5,0c0.1,0,0.2,0.1,0.1,0.3c-0.1,0.2,0,0.3,0.2,0.4c0.2,0.1,0.5,0.3,0.7,0.5c0.2,0.2,0.5,0.4,0.5,0.3
		c0.2-0.1,0.8,0,0.7,0.1c-0.2,0.3,0.4,0.7,0.9,0.7c0.3,0,0.7,0.1,0.8,0.2c0.1,0.2,0.2,0.2,0,0.2c-0.1,0-0.1,0.1-0.1,0.2
		c0.1,0.1,0.4,0.2,0.7,0.1c0.3,0,0.6,0,0.6,0.1c0,0.1,0.1,0.1,0.3,0.1c0.2,0,0.3,0,0.1,0.2c-0.3,0.2,0.1,0.4,0.9,0.4
		c0.3,0,0.6,0.1,0.7,0.4c0.1,0.2,0.3,0.3,0.4,0.3c0.1-0.1,0.2,0,0.3,0.1c0.1,0.2,0.1,0.2,0.1,0c0-0.1,0.1-0.2,0.2-0.1
		c0.5,0.3,0.9,0.2,0.6-0.1c-0.2-0.3-0.2-0.3,0.1,0c0.2,0.1,0.3,0.4,0.3,0.5c0,0.3,0.7,0.5,0.8,0.2c0.1-0.3,0.6-0.3,0.8,0
		c0.1,0.1,0,0.1-0.1,0.1c-0.1,0-0.3,0-0.3,0.1c0,0.1,0.2,0.2,0.6,0.2c0.5,0,0.8,0.2,1,0.5c0.3,0.4,0.4,0.4,0.5,0.2
		c0.1-0.2,0.2-0.2,0.2-0.1c0,0.3,1.3,0.2,1.8-0.1c0.5-0.3,0.6-0.3,0.5,0c-0.1,0.1,0.1,0.3,0.3,0.3c0.2,0.1,0.3,0,0.3-0.1
		c-0.1-0.1,0.1-0.2,0.3-0.1c0.2,0,0.5,0.2,0.5,0.4c0,0.2,0,0.3-0.1,0.2c-0.1-0.1-0.2,0-0.2,0.1c0,0.1,1.3,0.2,3.3,0.2
		c2.3,0,3.3-0.1,3.3-0.2c0-0.1,0.1-0.1,0.2,0c0.3,0.3,1.3,0.3,1.6,0c0.2-0.2,0.2-0.2,0.1,0c-0.1,0.1,0,0.2,0.2,0.2
		c0.2,0,0.2-0.1,0.2-0.2c-0.1-0.2-0.1-0.2,0.1,0c0.1,0.1,0.8,0.2,1.5,0.2c0.8,0,1.4-0.1,1.5-0.2c0.2-0.2,0.2-0.2,0.1,0
		c-0.2,0.3,0.8,0.3,1.2,0c0.2-0.1,0.2-0.1,0.1,0c-0.2,0.3,0.7,0.2,1.2-0.1c0.1-0.1,0.2,0,0.2,0.1c0,0.1,0.1,0.1,0.3-0.1
		c0.4-0.4,1.2-0.9,1.1-0.6c-0.1,0.1,0,0.2,0.1,0.2c0.1,0,0.2-0.1,0.2-0.2c0-0.2,1-0.2,1.3,0c0.2,0.2,0.3,0.1,0.5-0.1
		c0.2-0.3,0.2-0.3,0.3,0c0.1,0.3,0.1,0.3,0.4,0c0.2-0.2,0.2-0.4,0.2-0.5c-0.1-0.1,0-0.2,0.1-0.1c0.1,0,0.2,0,0.2-0.1
		c0-0.1,0.1-0.2,0.2-0.2c0.1,0,0.2,0.1,0.2,0.2c-0.1,0.1,0,0.2,0.1,0.2c0.1,0,0.3-0.2,0.4-0.4l0.2-0.4l0,0.4c0,0.2,0.1,0.5,0.2,0.5
		c0.2,0.1,0.2,0,0.1-0.2c-0.1-0.2-0.1-0.3,0.1-0.1c0.3,0.2,0.9,0.2,0.8,0c-0.1-0.1,0-0.2,0.1-0.2c0.1,0,0.2-0.1,0.2-0.3
		c0-0.2,0.1-0.2,0.2-0.1c0.1,0.1,0.4,0.2,0.7,0.1c0.2-0.1,0.6-0.1,0.8-0.1c0.5-0.1,0.6-0.2,0.4-0.5c-0.2-0.2,0-0.2,0.6-0.2
		c0.7,0,0.8,0,0.6-0.3c-0.3-0.5-0.2-0.7,0.1-0.3c0.2,0.2,0.3,0.3,0.4,0.1c0.1-0.1,0.3-0.2,0.5-0.2c0.2,0,0.4-0.1,0.4-0.2
		c0-0.1,0.1-0.1,0.3,0c0.2,0.1,0.3,0.2,0.3,0.1c0.1-0.6,0.4-1.3,0.4-0.8c0,0.1,0.1,0.2,0.2,0.2c0.1,0,0.1-0.1,0.1-0.2
		c-0.1-0.1,0.1-0.1,0.4-0.1c0.4,0.1,0.5,0,0.5-0.3c0-0.2,0.1-0.4,0.4-0.4c0.2,0,0.5,0,0.6-0.1c0.1,0,0.3-0.1,0.4-0.1
		c0.1,0,0.2-0.1,0.1-0.3c-0.1-0.2,0-0.3,0.3-0.3c0.2,0,0.4-0.1,0.4-0.2c0-0.2,0.1-0.1,0.2,0c0.2,0.2,0.2,0.2,0.2,0
		c0-0.2-0.1-0.3-0.2-0.4c-0.1,0,0-0.2,0.2-0.3c0.3-0.1,0.7-0.4,0.9-0.6c0.4-0.4,0.4-0.4,0.3,0c-0.1,0.2,0,0.4,0.1,0.5
		c0.1,0.1,0.2,0,0.2-0.1c-0.1-0.5,0-0.8,0.2-0.6c0.1,0.2,0.2,0.1,0.3-0.2c0.1-0.3,0.2-0.5,0.3-0.5c0.1,0,0.1-0.1,0.1-0.2
		c-0.1-0.1,0-0.2,0.2-0.2s0.2,0.1,0.2,0.2c-0.1,0.1,0,0.2,0.1,0.2c0.1,0,0.2-0.2,0.3-0.4c0.1-0.2,0.2-0.4,0.3-0.4
		c0.1,0,0.1,0.1,0,0.2c-0.1,0.1,0,0.1,0.2,0c0.2-0.2,0.3-0.3,0.1-0.4c-0.1-0.1-0.2-0.2-0.1-0.3c0.2-0.3,0.8-0.3,0.8,0
		c0,0.1-0.1,0.2-0.2,0.1c-0.1,0-0.2,0-0.1,0c0.1,0,0.1,0.2,0,0.3c-0.1,0.1,0.1,0,0.3-0.2c0.2-0.3,0.5-0.4,0.6-0.4
		c0.1,0,0.2-0.1,0.3-0.3c0.2-0.4,0.6-0.8,0.9-0.6c0.1,0.1,0.1,0,0-0.1c-0.2-0.3,0.4-0.8,0.7-0.7c0.2,0.1,0.2,0.1,0-0.1
		c-0.2-0.2-0.2-0.3,0-0.6c0.1-0.2,0.1-0.5,0.1-0.6c-0.1-0.2,0.1-0.2,0.5-0.2c0.7,0.1,1-0.1,1-0.4c0-0.1,0.2-0.3,0.5-0.4
		c0.4-0.1,0.4-0.2,0.2-0.3c-0.2-0.1-0.2-0.2,0-0.2c0.1,0,0.2-0.1,0.1-0.2c-0.1-0.1,0.1-0.2,0.3-0.2c0.3,0,0.4-0.2,0.4-0.5
		c0-0.3,0.1-0.6,0.2-0.8c0.2-0.4,0.5-0.2,0.4,0.2c-0.1,0.2,0,0.2,0.1,0.1c0.1-0.1,0.1-0.2,0.1-0.4c-0.1-0.2,0-0.3,0.4-0.3
		c0.4,0,0.4,0,0.2-0.2c-0.2-0.1-0.2-0.2,0-0.2c0.2-0.1,0.2-0.1-0.1-0.2c-0.2-0.1-0.3,0-0.3,0.2c0,0.1-0.1,0.3-0.2,0.3
		c-0.1,0-0.2-0.1-0.1-0.2c0.1-0.1,0.2-0.4,0.2-0.6c0.1-0.3,0.1-0.3,0.4,0c0.1,0.2,0.2,0.2,0.2,0.1c-0.1-0.5,0-0.6,0.4-0.6
		c0.4,0,0.6-0.3,0.4-0.6c-0.2-0.3-0.2-0.7,0-0.6c0.1,0.1,0.1,0.2,0.1,0.3c-0.1,0.1,0.1,0.1,0.3,0c0.5-0.3,0.7-0.5,0.3-0.3
		c-0.2,0.1-0.4,0-0.4-0.1c-0.1-0.1,0-0.2,0.2-0.2c0.2,0,0.3-0.1,0.1-0.4c-0.1-0.2-0.2-0.4-0.1-0.3c0.3,0.3,1.2-0.2,1.1-0.6
		c-0.1-0.2,0-0.4,0.2-0.4c0.2-0.1,0.2-0.2,0.2-0.3c-0.1-0.1,0-0.1,0.2,0.1c0.3,0.3,0.3,0.3,0.3-0.3c0-0.4,0.1-0.7,0.2-0.9
		c0.2-0.2,0.2-0.2-0.1-0.1c-0.3,0.1-0.3,0.1-0.1-0.1c0.1-0.1,0.4-0.1,0.6-0.1c0.4,0.1,0.5-0.3,0.1-0.6c-0.2-0.2-0.2-0.2,0-0.2
		c0.1,0,0.2-0.1,0.1-0.2c-0.1-0.1,0-0.4,0.2-0.5c0.2-0.2,0.3-0.2,0.2,0c-0.1,0.1-0.1,0.2,0.1,0.2c0.2,0,0.5-0.8,0.3-1.3
		c-0.1-0.2,0-0.3,0-0.3c0.1,0,0.3,0,0.5-0.2c0.2-0.1,0.3-0.3,0.1-0.3c-0.1,0-0.2-0.1-0.2-0.2c0-0.1,0.1-0.1,0.2-0.1
		c0.1,0.1,0.2-0.2,0.2-0.5c0-0.4,0.1-0.6,0.1-0.6c0.1,0,0.2,0,0.4-0.2c0.2-0.2,0.2-0.2-0.4-0.2c-0.3,0.1-0.5,0.1-0.5,0
		c0.1-0.1,0.5-0.2,1-0.3c0.1,0,0.1-0.1,0.1-0.1c-0.2-0.2,0.4-1.6,0.6-1.6c0.1,0,0.2-0.1,0.2-0.2c0-0.1,0-0.4,0.1-0.5
		c0-0.2,0.1-0.6,0.1-1.1c0-0.4,0.1-0.8,0.2-0.8c0.5,0.1,0.6,0,0.3-0.5c-0.2-0.3-0.2-0.4-0.1-0.4c0.2,0.1,0.2-0.1,0.3-0.7
		c0-0.6-0.1-0.8-0.2-0.7c-0.1,0.1-0.1,0,0-0.2c0.1-0.2,0.2-0.4,0.2-0.5c-0.1-0.8,0-1.5,0.2-1.3c0.2,0.1,0.3,0.1,0.4-0.1
		c0.2-0.2,0.2-0.3,0-0.5c-0.1-0.1-0.2-0.3-0.1-0.4c0.1-0.1,0-0.1-0.2-0.1c-0.2,0.1-0.3,0-0.3,0c0-0.1,0.2-0.2,0.4-0.2
		c0.2-0.1,0.3-0.2,0.3-0.4c0-0.2,0-0.4,0.1-0.5c0.2-0.3,0.1-1.1-0.1-1.2c-0.1-0.1-0.2-0.3-0.2-0.5c0-0.3,0-0.4,0.2-0.2
		c0.2,0.2,0.2-0.5,0.2-3.1c0-2.4-0.1-3.2-0.2-3.2c-0.1,0-0.3,0-0.3-0.1c-0.1-0.1-0.1-0.2,0.1-0.1c0.1,0.1,0.2,0,0.2-0.2
		c0-0.2,0.1-0.3,0.2-0.3c0.1,0,0.1-0.1,0-0.3c-0.2-0.2-0.2-0.3,0-0.3c0.2,0,0.2-0.1,0-0.3c-0.1-0.2-0.2-0.3,0-0.2
		c0.1,0.1,0.2,0,0.1-0.3c-0.1-0.3-0.1-0.3-0.3-0.1c-0.1,0.1-0.2,0.2-0.2,0c0-0.1,0.1-0.3,0.1-0.3c0.2-0.2,0.2-0.7,0-0.9
		c-0.2-0.1-0.2-0.1,0-0.1c0.1,0,0.2-0.1,0.1-0.2c-0.1-0.1,0-0.2,0.1-0.2c0.1,0,0.2-0.1,0.1-0.2c-0.1-0.1-0.3-0.2-0.5-0.2
		c-0.3,0-0.3,0-0.1-0.2c0.1-0.1,0.4-0.1,0.5-0.1c0.1,0.1,0.1,0-0.1-0.2c-0.3-0.3-0.5-0.4-0.3-0.1c0.1,0.1,0,0.2-0.1,0.2
		c-0.1,0-0.2-0.1-0.2-0.3c0-0.2-0.1-0.2-0.2-0.2c-0.1,0.1-0.1,0,0-0.3c0.3-0.5,0.3-0.6-0.1-0.5c-0.3,0.1-0.3,0.1,0-0.2
		c0.3-0.2,0.3-0.4,0.2-1.4c-0.1-1.1-0.3-1.6-0.4-1.1c0,0.1-0.2,0.2-0.3,0.2c-0.1,0-0.1-0.1,0-0.3c0.2-0.2,0.2-0.3,0-0.4
		c-0.1-0.1-0.2-0.3-0.1-0.5s0-0.4-0.1-0.4c-0.1,0-0.2,0.1-0.1,0.2c0.1,0.1,0,0.2-0.1,0.3c-0.1,0.1-0.2,0.1-0.1-0.1
		c0.1-0.1,0-0.2-0.1-0.2c-0.1,0-0.1-0.1,0.2-0.2l0.4-0.2l-0.4-0.3c-0.2-0.2-0.3-0.5-0.3-0.6c0.1-0.1,0-0.2-0.1-0.1
		c-0.1,0.1-0.2,0-0.1-0.3c0.1-0.3,0.1-0.4-0.1-0.3c-0.1,0.1-0.2,0-0.3-0.1c-0.1-0.1,0-0.2,0.1-0.1c0.1,0,0.3-0.1,0.3-0.2
		c0.1-0.2,0-0.2-0.1-0.1c-0.1,0.1-0.2,0-0.2-0.1c0-0.1,0.1-0.2,0.2-0.2s0.1-0.2,0.1-0.4c-0.1-0.4-0.1-0.4-0.4,0
		c-0.1,0.2-0.2,0.2-0.1,0.1c0.1-0.1,0-0.3-0.1-0.3c-0.2-0.1-0.2-0.3-0.2-0.6c0.1-0.4,0-0.5-0.2-0.5c-0.2,0-0.2,0,0-0.1
		c0.2-0.1,0.1-0.2-0.1-0.4c-0.3-0.2-0.3-0.2-0.3,0.1c0,0.2,0,0.2,0,0.1c0-0.1-0.2-0.2-0.3-0.2c-0.1,0-0.1-0.1,0-0.2
		c0.5-0.5,0.1-1.5-0.6-1.3c-0.2,0.1-0.3,0-0.2,0c0.3-0.2,0.3-0.7,0.1-0.9c-0.1-0.1-0.1-0.2,0-0.4c0.2-0.2,0.1-0.3-0.2-0.4
		c-0.2-0.1-0.4-0.2-0.4-0.3c0-0.1-0.1-0.1-0.2-0.1c-0.1,0.1-0.2,0-0.2-0.2c0-0.1,0.1-0.2,0.1-0.2c0.1,0,0.1-0.1,0-0.4
		c0-0.3-0.2-0.4-0.3-0.4c-0.1,0-0.5-0.3-0.9-0.7c-0.4-0.4-0.6-0.7-0.5-0.6c0.2,0.1,0.2,0,0.2-0.5c-0.1-0.5-0.1-0.6-0.6-0.7
		c-0.4,0-0.5-0.1-0.3-0.2c0.2-0.1,0.2-0.2-0.1-0.5c-0.2-0.2-0.3-0.2-0.3-0.1c0,0.1-0.2,0.1-0.5-0.1c-0.3-0.2-0.6-0.2-0.7-0.2
		c-0.1,0.1-0.2,0-0.1-0.1c0.2-0.3,0.6-0.3,0.7,0c0.1,0.1,0.1,0,0.1-0.2c0-0.3-0.1-0.4-0.4-0.3c-0.2,0.1-0.3,0-0.2-0.1
		c0.1-0.1,0-0.2-0.2-0.1c-0.2,0.1-0.3,0-0.3-0.2c0-0.3,0.3-0.4,0.5-0.1c0.1,0.1,0.3,0.2,0.4,0.2c0.2,0,0.2-0.1-0.1-0.2
		c-0.2-0.1-0.4-0.3-0.4-0.5c0-0.2,0-0.3-0.2,0c-0.2,0.4-0.8-0.1-0.6-0.5c0.1-0.2-0.1-0.5-0.4-0.7c-0.3-0.2-0.5-0.5-0.5-0.6
		c0-0.1-0.2-0.2-0.4-0.2c-0.2,0-0.4-0.1-0.4-0.4c0-0.2-0.2-0.4-0.3-0.5c-0.2-0.1-0.2,0,0,0.4c0.2,0.4,0.2,0.4-0.1,0.1
		c-0.2-0.2-0.3-0.5-0.3-0.8c0-0.3-0.1-0.4-0.5-0.4c-0.3,0-0.4,0.1-0.3,0.2c0.1,0.1,0,0.1,0,0.1c-0.1-0.1-0.2-0.4-0.2-0.6
		c0-0.4-0.1-0.5-0.3-0.4c-0.2,0-0.3-0.1-0.4-0.4c0-0.2-0.2-0.4-0.4-0.5c-0.2,0-0.3,0-0.2,0.2c0.1,0.2,0.1,0.2-0.1,0.1
		c-0.1-0.1-0.2-0.3-0.1-0.5c0.1-0.2,0-0.3-0.1-0.3c-0.1,0.1-0.3-0.1-0.4-0.2c-0.1-0.2-0.3-0.3-0.4-0.3c-0.1,0.1-0.1,0-0.1-0.2
		c0-0.2-0.1-0.3-0.2-0.3c-0.1,0-0.1,0.1-0.1,0.3c0.1,0.2,0,0.2-0.2,0.2c-0.2-0.1-0.2-0.3-0.2-0.7c0-0.4,0-0.5-0.1-0.3
		c-0.1,0.2-0.2,0.2-0.3,0c-0.1-0.1-0.1-0.1,0,0.2c0.1,0.2,0,0.4-0.1,0.4c-0.2,0-0.3-0.2-0.2-0.7c0-0.2,0-0.2-0.3,0
		c-0.2,0.1-0.3,0.2-0.3,0.1c0-0.1,0-0.2-0.1-0.3c0-0.1-0.1-0.3-0.1-0.4c0-0.1-0.2-0.3-0.4-0.3c-0.2,0-0.4-0.2-0.4-0.3
		c0.1-0.3-0.9-0.5-1.1-0.2c-0.1,0.1-0.2,0.1-0.3-0.2c-0.1-0.3-0.2-0.4-0.3-0.2c-0.1,0.2-0.2,0.1-0.1-0.2c0.1-0.3,0-0.4-0.1-0.4
		c-0.8,0.1-1.2,0-1.3-0.5c-0.1-0.3-0.2-0.4-0.4-0.4c-0.1,0.1-0.4-0.1-0.5-0.3c-0.3-0.5-0.8-0.6-1.2-0.2c-0.1,0.1-0.2,0.1-0.1,0
		c0.2-0.3-0.2-1-0.5-1c-0.2,0-0.3,0.1-0.3,0.2c0,0.2-0.1,0.1-0.2,0c-0.1-0.2-0.2-0.2-0.2,0.1c0,0.3,0,0.3-0.2,0
		c-0.2-0.5-0.5-0.7-0.8-0.4c-0.4,0.3-0.3,0.1,0-0.3c0.3-0.3,0.3-0.3,0-0.3c-0.2,0-0.4,0.1-0.5,0.3c-0.2,0.3-0.2,0.3-0.2,0
		c0-0.4-0.5-0.6-0.8-0.4c-0.1,0.1-0.2,0.1-0.2-0.2c0-0.2,0.1-0.4,0.2-0.4c0.1,0,0.1,0.1,0.1,0.2c-0.1,0.1-0.1,0.2,0.1,0.1
		c0.4-0.3-0.1-0.5-1.2-0.6c-0.9,0-1.1-0.1-1.4-0.5c-0.3-0.4-0.4-0.4-0.6-0.1c-0.2,0.3-0.3,0.3-0.3,0.1c-0.1-0.1-0.3-0.2-0.5-0.2
		c-0.3,0-0.5-0.1-0.6-0.3c-0.2-0.4-1.8-0.6-2.3-0.2c-0.2,0.2-0.2,0.1-0.1,0c0.1-0.2-0.4-0.3-0.7-0.1c-0.3,0.3-0.6,0.2-0.6-0.3
		c0-0.6-0.2-0.7-0.5-0.5c-0.1,0.1-0.3,0.2-0.4,0.2c-0.1,0-0.1-0.1,0.1-0.2c0.2-0.1-0.5-0.2-1.8-0.2c-1.3,0-2.1,0.1-2.2,0.2
		c-0.1,0.1-0.1,0.1-0.1,0c0-0.1-0.1-0.2-0.2-0.1c-0.1,0.1-0.2,0-0.2,0c0-0.2-3.3-0.1-3.6,0.1c-0.1,0.1-0.4,0.2-0.6,0.1
		c-0.4,0-0.4,0,0.1-0.2c0.5-0.1,0.5-0.1,0.1-0.2c-0.3,0-0.6-0.1-0.8-0.1C214.7,43.9,214.5,44,214.5,44.2 M210,44.6
		c0.1,0.3,0.1,0.3-0.1,0.3c-0.4-0.1-0.5-0.2-0.4-0.5C209.7,44.2,209.7,44.2,210,44.6 M203.1,45.7c-0.1,0.1-0.1,0.2,0,0.3
		c0.2,0.2,0.3,0.2,0.3,0C203.6,45.7,203.4,45.5,203.1,45.7 M231,46.4c0,0.1,0,0.2-0.1,0.2s-0.2-0.1-0.1-0.2c0.1-0.1,0-0.2-0.1-0.2
		c-0.1,0-0.2,0.1-0.2,0.2c0,0.1-0.1,0.1-0.2,0.1c-0.1-0.1-0.1-0.2,0-0.3C230.6,46.1,230.9,46.1,231,46.4 M178.9,65.3
		c-0.1,0.4-0.1,0.7,0,0.7c0.1,0,0.2-0.2,0.2-0.4C179.1,65.4,178.9,65.1,178.9,65.3 M178.6,67.2c-0.1,0.1-0.2,0.2-0.3,0.2
		c-0.1-0.1-0.1-0.2-0.1-0.4c0.1-0.1,0.2-0.2,0.3-0.2C178.6,66.9,178.6,67.1,178.6,67.2 M175.6,74.6c-0.2,0.2-0.5-0.3-0.3-0.6
		c0.1-0.2,0.2-0.1,0.3,0.1C175.7,74.4,175.7,74.6,175.6,74.6 M173.2,95.5c0,0.1,0.1,0.2,0.2,0.2s0.1,0.1,0.1,0.2
		c-0.1,0.2,0.1,0.3,0.3,0.1c0.1-0.1-0.2-0.6-0.4-0.6C173.3,95.3,173.2,95.4,173.2,95.5 M248.1,119c0,0.1,0.1,0.2,0.1,0.2
		c0.1,0,0.2,0,0.2,0.1c0.1,0.1,0.1,0.1,0.1-0.2c0-0.2-0.1-0.4-0.2-0.4C248.2,118.8,248.1,118.9,248.1,119 M188.9,121.9
		c0,0.3,0.3,0.6,0.4,0.4c0.1-0.1,0.1-0.3,0-0.4C189.3,121.8,188.9,121.7,188.9,121.9"/>
	<path id="path1" class="st1" d="M135.9,31.5v15.6l-16.3,0c-18.2,0-19.3,0-19.4,0.5c-0.1,0.3-0.3,0.3-2.1,0.3c-1.8,0-2,0-2.4,0.4
		c-0.3,0.3-0.6,0.4-1.5,0.4c-1,0-1.1,0-1.1,0.4c0,0.3-0.1,0.4-1.2,0.4c-1.2,0-1.2,0-1.2,0.5c0,0.3-0.1,0.4-0.2,0.4
		c-0.4-0.2-2,0.1-2.1,0.5c-0.1,0.3-0.3,0.3-0.8,0.3c-0.5,0-0.7,0.1-0.7,0.4c-0.1,0.2-0.2,0.4-0.5,0.4c-0.3,0-0.4,0.1-0.4,0.4
		c0,0.3-0.1,0.4-0.4,0.4c-0.7,0-1,0.2-1,0.6c0,0.2-0.1,0.3-0.4,0.3c-0.2,0-0.4,0.2-0.5,0.4c-0.1,0.2-0.3,0.4-0.5,0.4
		c-0.2,0-0.4,0.1-0.4,0.3c0,0.2-0.2,0.4-0.4,0.4c-0.2,0.1-0.4,0.2-0.4,0.5c0,0.3-0.1,0.4-0.4,0.3c-0.3-0.1-0.4,0-0.4,0.4
		c0,0.3-0.1,0.5-0.4,0.5c-0.2,0-0.4,0.2-0.4,0.3c0,0.2-0.2,0.3-0.4,0.4c-0.3,0.1-0.4,0.3-0.4,0.8c-0.1,0.6-0.2,0.8-0.6,0.7
		c-0.1,0-0.1,0.2-0.1,0.4c0,0.3-0.1,0.5-0.4,0.5c-0.3,0-0.4,0.1-0.4,0.8c0,0.6-0.1,0.8-0.4,0.7c-0.2,0-0.3,0.1-0.3,0.3
		c0,0.8-0.1,1.1-0.5,1.6c-0.3,0.3-0.4,0.8-0.4,1.2c0,0.5-0.1,0.8-0.4,1.1c-0.3,0.3-0.4,0.6-0.4,2c0,1.5,0,1.6-0.4,1.6
		c-0.6,0-0.6,40.7,0,41c0.3,0.2,0.4,0.4,0.4,1.5c0,1,0.1,1.3,0.4,1.6c0.2,0.2,0.4,0.5,0.4,1c0,0.4,0.2,0.9,0.4,1.2
		c0.4,0.5,0.5,0.8,0.5,1.6c0,0.2,0.2,0.3,0.4,0.3c0.3,0,0.4,0.1,0.4,0.6c0,0.4,0.1,0.7,0.4,0.8c0.2,0.1,0.4,0.4,0.4,0.6
		c0,0.2,0.1,0.4,0.4,0.4c0.3,0,0.4,0.1,0.4,0.4c0,0.7,0.2,1,0.6,1c0.2,0,0.3,0.1,0.3,0.2c-0.2,0.3,0.1,0.7,0.5,0.7
		c0.2,0,0.3,0.1,0.3,0.4c0,0.2,0.1,0.4,0.4,0.4c0.2,0,0.4,0.1,0.4,0.4c0,0.2,0.1,0.4,0.4,0.4c0.2,0,0.4,0.1,0.4,0.4
		c0,0.2,0.2,0.4,0.5,0.5c0.3,0.1,0.5,0.3,0.5,0.5s0.2,0.3,0.3,0.3c0.2,0,0.4,0.2,0.4,0.4c0.1,0.3,0.3,0.4,0.8,0.4
		c0.5,0,0.7,0.1,0.7,0.4c0,0.3,0.1,0.4,0.5,0.4c0.3,0,0.5,0.1,0.5,0.4c0,0.3,0.2,0.4,0.7,0.5c0.5,0.1,0.7,0.2,0.8,0.5
		c0.1,0.3,0.3,0.3,0.8,0.3c0.6,0,0.7,0.1,0.7,0.4c0,0.3,0.1,0.4,1.1,0.4c1,0,1.1,0,1.1,0.3c0,0.4,0.3,0.6,1.5,0.6
		c0.7,0,0.9,0.1,1,0.4c0.1,0.3,0.2,0.4,1.6,0.4c1.3,0,1.5,0,1.6,0.4c0.1,0.3,0.3,0.4,1.9,0.4c1.6,0,1.9,0,2.2,0.4
		c0.4,0.4,0.6,0.4,20.3,0.4c20,0,20.5,0,20.5-0.5c0-0.2,0.4-0.3,2-0.3c1.8,0,2.1,0,2.4-0.4c0.3-0.3,0.6-0.4,1.5-0.4
		c1,0,1.1-0.1,1.2-0.4c0.1-0.3,0.3-0.4,1-0.4c1.1,0,1.5-0.1,1.5-0.6c0-0.3,0.1-0.3,1-0.3c0.9,0,1-0.1,1.1-0.4
		c0.1-0.3,0.2-0.4,0.6-0.4c0.3,0,0.7-0.2,0.8-0.4c0.2-0.2,0.5-0.4,0.6-0.4c0.2,0,0.3-0.1,0.3-0.5c0-0.4,0.1-0.5,0.7-0.5
		c0.6,0,0.8-0.1,0.8-0.4c0.1-0.2,0.3-0.4,0.4-0.4c0.2,0,0.3-0.1,0.3-0.4c0-0.2,0.1-0.4,0.4-0.4c0.2,0,0.4-0.1,0.4-0.4
		c0-0.2,0.1-0.4,0.4-0.4c0.3,0,0.4-0.2,0.5-0.5c0-0.3,0.2-0.4,0.4-0.4c0.2,0,0.4-0.1,0.4-0.4c0-0.2,0.1-0.4,0.4-0.4
		c0.2,0,0.4-0.1,0.4-0.3c0-0.2,0.2-0.4,0.4-0.4c0.3-0.1,0.4-0.3,0.4-0.8c0-0.7,0-0.7,0.5-0.7c0.3,0,0.4-0.1,0.4-0.1
		c-0.1-0.4,0.1-0.6,0.4-0.6c0.3-0.1,0.4-0.2,0.4-0.7c0-0.5,0.1-0.7,0.4-0.8c0.3-0.1,0.4-0.3,0.4-0.9c0-0.6,0.1-0.8,0.3-0.8
		c0.3,0,0.5-0.4,0.5-1.3c0-0.5,0.1-0.8,0.4-1.1c0.4-0.3,0.4-0.5,0.5-2c0.1-1.4,0.1-1.7,0.4-1.7c0.3-0.1,0.3-1,0.3-47.1v-47h-15.9
		h-15.9V31.5 M266.5,62.7c0,48.4,0,47.4,0.6,47.4c0.3,0,0.3,0.2,0.3,1.5c0,1.3,0,1.5,0.4,1.7c0.3,0.2,0.4,0.4,0.4,1.2
		c0,0.8,0.1,1,0.4,1.2c0.3,0.2,0.4,0.4,0.4,1.1c0,0.7,0.1,0.9,0.4,0.9c0.2,0.1,0.4,0.2,0.4,0.3c0.1,0.9,0.3,1.4,0.6,1.4
		c0.2,0,0.3,0.2,0.3,0.4c0,0.2,0.1,0.4,0.4,0.4c0.3,0,0.4,0.1,0.4,0.7c0,0.6,0.1,0.8,0.4,0.8c0.2,0.1,0.4,0.2,0.4,0.4
		c0,0.2,0.2,0.4,0.4,0.4c0.3,0,0.4,0.2,0.4,0.4c0,0.2,0.1,0.3,0.4,0.3c0.4,0,0.5,0.1,0.5,0.5c0,0.3,0.1,0.5,0.4,0.5
		c0.2,0,0.4,0.1,0.4,0.4c0,0.2,0.1,0.4,0.4,0.4c0.2,0,0.4,0.1,0.4,0.4c0,0.3,0.1,0.4,0.5,0.4c0.3,0,0.5,0.1,0.5,0.4
		c0,0.3,0.1,0.4,0.7,0.4c0.7,0,0.7,0,0.7,0.5c0,0.3,0.1,0.5,0.4,0.5c0.2,0,0.5,0.2,0.7,0.4c0.2,0.2,0.5,0.4,0.7,0.4
		c0.2,0,0.5,0.2,0.7,0.4c0.3,0.3,0.6,0.4,1.1,0.4c0.6,0,0.8,0.1,1,0.4c0.2,0.3,0.3,0.4,1.2,0.5c0.8,0,1,0.1,1.1,0.4
		c0.1,0.3,0.3,0.4,1.3,0.4c0.9,0,1.2,0.1,1.5,0.4c0.3,0.3,0.6,0.4,2.3,0.4c1.7,0,2,0,2.3,0.4c0.3,0.4,0.5,0.4,22.5,0.4h22.2V116V100
		H321c-15.4,0-15.5,0-15.5-0.4c0-0.3-0.1-0.4-1.2-0.4c-1.1,0-1.2,0-1.2-0.4c0-0.3-0.2-0.4-0.3-0.4c-0.2,0-0.5-0.2-0.7-0.4
		c-0.2-0.3-0.6-0.5-0.8-0.5s-0.4-0.2-0.4-0.4c-0.1-0.2-0.3-0.4-0.5-0.4c-0.3,0-0.4-0.1-0.4-0.7c0-0.6-0.1-0.8-0.3-0.8
		c-0.3-0.1-0.4-0.3-0.4-1c-0.1-0.6-0.2-1-0.4-1.1c-0.3-0.2-0.3-3.4-0.3-38.7l0-38.5l-16,0l-16,0L266.5,62.7 M43.9,3.1
		c-0.3,0-0.5,0.2-0.6,0.4c-0.1,0.3-0.3,0.4-1.1,0.4c-0.9,0-1,0.1-1.1,0.4c-0.1,0.3-0.2,0.4-0.7,0.4c-0.4,0-0.7,0.1-0.8,0.4
		c-0.1,0.2-0.4,0.4-0.6,0.4c-0.2,0-0.3,0.1-0.3,0.4c0,0.3-0.2,0.4-0.8,0.5c-0.5,0.1-0.8,0.2-0.8,0.5c0,0.2-0.2,0.3-0.4,0.3
		c-0.2,0-0.3,0.1-0.3,0.4c0,0.2-0.1,0.4-0.3,0.4c-0.2,0-0.3,0.2-0.4,0.4c-0.1,0.2-0.3,0.4-0.5,0.4c-0.3,0-0.4,0.2-0.3,0.5
		c0,0.3,0,0.4-0.4,0.4c-0.3,0-0.5,0.1-0.5,0.3c0,0.2-0.2,0.4-0.4,0.4c-0.3,0.1-0.4,0.3-0.4,0.8c0,0.6-0.1,0.8-0.6,0.7
		c-0.1,0-0.1,0.2-0.1,0.4c0,0.3-0.1,0.5-0.3,0.5c-0.3,0-0.4,0.2-0.6,0.9c-0.1,0.3-0.3,0.7-0.5,0.9c-0.3,0.3-0.4,0.6-0.4,1.2
		c0,0.6-0.1,0.8-0.4,0.9C30,16.5,30,16.7,30,19.3c0,1.9-0.1,2.9-0.2,3c-0.2,0.2-0.2,0.3,0,0.4c0.2,0.2,0.2,1.1,0.2,3
		c0,2.7,0,2.8,0.4,2.9c0.3,0.1,0.4,0.2,0.4,1.1s0.1,1,0.4,1.1c0.3,0.1,0.5,0.4,0.4,0.8c-0.1,0.4,0.2,0.8,0.5,0.8
		c0.2,0,0.4,0.1,0.4,0.3c0,0.2,0.2,0.6,0.4,0.8c0.2,0.3,0.4,0.6,0.4,0.8c0,0.2,0.2,0.4,0.4,0.4c0.2,0.1,0.4,0.3,0.4,0.4
		c0,0.2,0.1,0.3,0.4,0.3c0.3,0,0.5,0.2,0.4,0.6c0,0.1,0.2,0.1,0.4,0.1c0.4,0,0.5,0.1,0.5,0.5c0,0.3,0.1,0.5,0.4,0.5
		c0.2,0,0.4,0.1,0.4,0.4c0,0.2,0.1,0.4,0.4,0.4c0.2,0,0.4,0.1,0.4,0.4c0,0.3,0.1,0.4,0.5,0.4s0.5,0.1,0.5,0.4c0,0.3,0.1,0.4,0.7,0.4
		c0.6,0,0.7,0.1,0.8,0.4c0,0.3,0.2,0.4,0.7,0.5c0.5,0,0.7,0.2,0.8,0.4c0.1,0.3,0.3,0.4,0.8,0.4c0.5,0,0.8,0.1,1.1,0.4
		c0.3,0.3,0.6,0.4,1.9,0.4c1.4,0,1.5,0,1.6,0.4c0.1,0.3,0.3,0.4,3,0.4c2.8,0,2.9,0,3-0.4c0.1-0.3,0.3-0.4,1.7-0.4
		c1.4,0,1.5,0,1.5-0.4c0-0.3,0.1-0.4,1.1-0.4c0.9,0,1.1-0.1,1.2-0.3c0.1-0.2,0.3-0.4,0.8-0.5c0.6-0.1,0.7-0.2,0.7-0.5
		c0-0.3,0.1-0.4,0.5-0.4c0.3,0,0.5-0.1,0.5-0.4c0-0.3,0.1-0.4,0.7-0.4c0.5,0,0.7-0.1,0.8-0.4c0.1-0.2,0.2-0.4,0.4-0.4
		c0.2,0,0.4-0.2,0.4-0.3c0.1-0.2,0.3-0.4,0.5-0.4c0.2-0.1,0.4-0.3,0.4-0.5c0-0.3,0.1-0.4,0.4-0.4c0.2,0,0.4-0.1,0.4-0.4
		c0-0.2,0.1-0.4,0.4-0.4c0.2,0,0.4-0.1,0.4-0.4c0-0.2,0.2-0.6,0.5-0.8c0.3-0.3,0.5-0.6,0.5-0.8c0-0.3,0.1-0.4,0.4-0.4
		c0.3,0,0.4-0.1,0.4-0.7c0-0.6,0.1-0.7,0.4-0.7c0.3,0,0.4-0.1,0.4-0.8c0-0.7,0.1-0.8,0.4-0.8c0.3,0,0.4-0.1,0.4-1.2
		c0-1,0-1.2,0.3-1.2c0.5,0,0.5-0.4,0.6-5.3c0-4.3-0.1-5.3-0.6-5.3c-0.2,0-0.3-0.2-0.3-1.2c0-1,0-1.2-0.4-1.3
		c-0.3-0.1-0.4-0.2-0.4-0.8c0-0.6-0.1-0.7-0.4-0.7c-0.3,0-0.4-0.1-0.4-0.6c0-0.4-0.1-0.7-0.3-0.9c-0.2-0.1-0.4-0.4-0.5-0.6
		c-0.1-0.2-0.3-0.3-0.5-0.3c-0.3,0-0.4-0.1-0.4-0.7c0-0.5-0.1-0.7-0.4-0.8c-0.2-0.1-0.4-0.2-0.4-0.4c0-0.2-0.2-0.4-0.4-0.4
		c-0.2-0.1-0.4-0.3-0.5-0.5c-0.1-0.2-0.2-0.3-0.2-0.3c-0.4,0.1-0.6-0.1-0.6-0.4C62.6,7.1,62.4,7,62,7c-0.3,0-0.7-0.2-0.9-0.5
		c-0.2-0.3-0.5-0.5-0.6-0.5c-0.1,0-0.2-0.2-0.3-0.4c-0.1-0.3-0.3-0.4-0.7-0.4c-0.4,0-0.6-0.1-0.8-0.4c-0.2-0.3-0.4-0.4-0.9-0.4
		c-0.6,0-0.7-0.1-0.7-0.4c0-0.3-0.1-0.4-0.8-0.4c-0.6,0-0.9-0.1-1.1-0.4C55.1,3.1,46.2,2.8,43.9,3.1 M321.1,50.7
		c-0.1,0.3-0.3,0.4-1.7,0.4c-1.4,0-1.5,0-1.5,0.4c0,0.3-0.9,0.5-1.9,0.4c-0.1,0-0.3,0.1-0.3,0.3c-0.1,0.2-0.2,0.4-0.6,0.4
		c-0.7,0-1,0.2-1,0.6c0,0.2-0.1,0.3-0.3,0.3c-0.2,0-0.4,0.2-0.6,0.4c-0.2,0.2-0.5,0.4-0.8,0.4c-0.4,0-0.5,0.2-0.5,0.4
		c0,0.3-0.1,0.3-0.6,0.3c-0.1,0-0.2,0.2-0.2,0.4c-0.1,0.2-0.2,0.4-0.4,0.4c-0.2,0-0.3,0.1-0.3,0.4c0,0.3-0.1,0.4-0.5,0.4
		c-0.4,0-0.4,0.1-0.4,0.4c0.1,0.3,0,0.4-0.4,0.4c-0.4,0-0.5,0.1-0.5,0.5c0,0.3-0.1,0.5-0.3,0.5c-0.2,0-0.3,0.1-0.3,0.2
		c0,0.1,0,0.3-0.1,0.4c0,0.1-0.1,0.3-0.1,0.5c0,0.2-0.2,0.4-0.4,0.4c-0.3,0-0.4,0.1-0.4,0.7c0,0.6-0.1,0.7-0.5,0.8
		c-0.3,0.1-0.4,0.2-0.4,0.2c0.1,0.7-0.1,1.3-0.4,1.3c-0.2,0-0.4,0.1-0.3,0.1c0.1,0.9-0.1,2.1-0.4,2.2c-0.4,0.1-0.4,0.3-0.4,5.3
		c0,5.1,0,5.2,0.4,5.3c0.3,0.1,0.5,1,0.4,2c0,0.1,0.1,0.3,0.3,0.3c0.4,0.1,0.4,0.2,0.5,1.2c0,0.2,0.2,0.4,0.4,0.4
		c0.3,0,0.4,0.2,0.4,0.8c0,0.5,0.1,0.7,0.4,0.8c0.2,0.1,0.4,0.3,0.4,0.5c0,0.2,0.1,0.4,0.4,0.4c0.3,0,0.4,0.1,0.4,0.4
		c0,0.6,0.2,1,0.5,1c0.1,0,0.3,0.2,0.4,0.4c0.1,0.2,0.3,0.4,0.5,0.5c0.2,0.1,0.4,0.3,0.4,0.5c0,0.2,0.1,0.4,0.3,0.4
		c0.2,0,0.4,0.2,0.4,0.4c0.1,0.2,0.3,0.4,0.6,0.4c0.3,0,0.6,0.2,0.7,0.4c0.1,0.2,0.4,0.4,0.6,0.4c0.3,0,0.4,0.1,0.5,0.4
		c0,0.3,0.2,0.4,0.7,0.5c0.5,0,0.7,0.1,0.7,0.4c0,0.3,0.1,0.4,0.8,0.4c0.7,0,0.8,0.1,0.8,0.4c0,0.3,1,0.5,1.9,0.4
		c0.1,0,0.1,0.1,0,0.2c-0.3,0.5,0.6,0.5,6.1,0.5c5.6,0,5.7,0,5.8-0.4c0.1-0.3,0.2-0.4,0.9-0.4c1,0,1.4-0.1,1.4-0.5
		c0-0.2,0.2-0.3,0.5-0.3c0.3,0,0.7-0.2,0.9-0.3c0.2-0.2,0.5-0.4,0.7-0.4c0.2,0,0.4-0.2,0.4-0.5c0-0.3,0.2-0.4,0.7-0.4
		c0.5,0,0.7-0.1,0.7-0.4c0.1-0.2,0.3-0.4,0.4-0.4c0.2,0,0.3-0.1,0.3-0.4c0-0.3,0.1-0.4,0.4-0.4c0.2,0,0.4-0.1,0.5-0.3
		c0.1-0.2,0.2-0.4,0.4-0.4c0.2-0.1,0.3-0.3,0.3-0.5c0-0.3,0.1-0.4,0.4-0.4c0.2,0,0.4-0.1,0.4-0.3c0-0.2,0.2-0.4,0.4-0.4
		c0.2-0.1,0.4-0.3,0.5-0.7c0.1-0.4,0.2-0.7,0.5-0.7c0.2-0.1,0.3-0.3,0.3-0.5c0-0.2,0.1-0.4,0.3-0.5c0.1-0.1,0.3-0.4,0.4-0.8
		c0.1-0.4,0.3-0.9,0.5-1c0.2-0.2,0.3-0.6,0.3-1.1c0-0.6,0.1-0.8,0.4-1c0.8-0.5,0.7-12-0.1-12.2c-0.3-0.1-0.4-0.3-0.4-1.2
		c0-1,0-1.1-0.4-1.1c-0.3,0-0.4-0.1-0.4-0.7c0-0.6-0.1-0.8-0.4-0.8c-0.2-0.1-0.4-0.2-0.4-0.4c0-0.2-0.2-0.5-0.3-0.7
		c-0.2-0.2-0.4-0.6-0.5-0.9c-0.1-0.3-0.2-0.5-0.3-0.5c-0.4,0.1-0.6-0.1-0.6-0.4c0-0.2-0.1-0.4-0.4-0.4c-0.2,0-0.4-0.1-0.4-0.4
		c0-0.2-0.1-0.4-0.4-0.4c-0.2,0-0.4-0.1-0.4-0.4c0-0.2-0.2-0.4-0.5-0.5c-0.3-0.1-0.5-0.2-0.5-0.5c0-0.2-0.1-0.3-0.4-0.3
		c-0.2,0-0.4-0.1-0.4-0.4c0-0.2-0.1-0.4-0.3-0.4c-0.2,0-0.4-0.2-0.4-0.4c-0.1-0.3-0.3-0.4-0.8-0.4c-0.6,0-0.7-0.1-0.8-0.5
		c0-0.3-0.2-0.4-0.8-0.4c-0.6,0-0.7-0.1-0.7-0.3c0-0.3-0.2-0.3-0.8-0.4c-0.5,0-0.8-0.2-1-0.4c-0.2-0.3-0.5-0.4-2-0.4
		c-1.6,0-1.7,0-1.7-0.4c0-0.4-0.1-0.4-3-0.4C321.4,50.3,321.2,50.3,321.1,50.7 M130.4,79.4c0,0.3,0.1,0.4,0.7,0.4
		c0.6,0,0.7,0.1,0.8,0.4c0.1,0.2,0.2,0.4,0.4,0.4c0.3,0,1.2,0.8,1.2,1.1c0,0.1,0.2,0.3,0.4,0.4c0.2,0.1,0.4,0.4,0.4,0.6
		c0,0.2,0.1,0.4,0.4,0.4c0.3,0,0.4,0.1,0.4,0.7c0,1,0.2,1.5,0.5,1.6c0.3,0.1,0.3,0.6,0.3,4.4v4.3l-0.4,0.1c-0.3,0.1-0.4,0.2-0.4,0.8
		c0,0.5-0.1,0.7-0.3,0.7c-0.3,0-0.5,0.4-0.5,1c0,0.3-0.1,0.4-0.3,0.4c-0.2,0-0.3,0.2-0.4,0.4c-0.1,0.2-0.2,0.4-0.4,0.4
		c-0.2,0-0.3,0.1-0.3,0.4c0,0.2-0.1,0.4-0.2,0.4c-0.1,0-0.3,0-0.4,0c-0.1,0-0.3,0.2-0.5,0.4c-0.2,0.3-0.5,0.4-1.2,0.4
		c-0.8,0-0.9,0-0.9,0.4c0,0.4-0.1,0.4-8.6,0.4s-8.6,0-8.6-0.4c0-0.3-0.1-0.4-0.8-0.4c-0.7,0-0.8-0.1-0.8-0.3c0-0.4-0.5-0.6-0.7-0.5
		c-0.1,0.1-0.2,0-0.2-0.2c0-0.2-0.2-0.4-0.4-0.5c-0.2-0.1-0.4-0.3-0.4-0.5c0-0.1-0.1-0.3-0.2-0.4c-0.1-0.1-0.3-0.3-0.4-0.5
		c-0.1-0.2-0.3-0.3-0.5-0.3c-0.3,0-0.4-0.1-0.4-1.1c0-1,0-1.1-0.4-1.2c-0.4-0.1-0.4-0.2-0.4-4.4c0-4.2,0-4.3,0.4-4.3
		c0.3,0,0.4-0.1,0.4-0.8c0-0.6,0.1-0.8,0.4-0.9c0.2-0.1,0.4-0.3,0.5-0.8c0.1-0.4,0.2-0.7,0.4-0.7c0.1,0,0.3-0.2,0.4-0.3
		c0-0.2,0.2-0.4,0.4-0.4c0.2-0.1,0.3-0.3,0.3-0.5c0-0.2,0.1-0.4,0.3-0.4c0.2,0,0.4-0.2,0.5-0.4c0.2-0.3,0.4-0.4,1.2-0.4
		c0.8,0,0.9-0.1,1-0.4c0.1-0.4,0.3-0.4,8.7-0.4C130.3,79,130.4,79,130.4,79.4 M4.7,160l-0.4,0.1l0,6.6c0,3.6,0,6.7,0.1,6.9
		c0.2,0.5,10.9,0.5,10.9,0c0-0.2,0.1-0.4,0.4-0.4c0.3,0,0.4-0.1,0.4-0.5c0-0.3,0.1-0.5,0.4-0.5c0.3,0,0.4-0.1,0.4-2.3
		c0-2.2,0-2.3-0.4-2.3c-0.2,0-0.4-0.1-0.4-0.4c0-0.2-0.1-0.4-0.4-0.4c-0.2,0-0.4-0.1-0.4-0.4c0-0.2,0.2-0.4,0.4-0.5
		c0.3-0.1,0.4-0.3,0.4-2.8v-2.6h-0.7c-0.6,0-0.7-0.1-0.7-0.4c0-0.2-0.1-0.4-0.3-0.4C12,160,5,160,4.7,160 M24,160
		c-0.1,0-0.2,0.2-0.2,0.4c0,0.3-0.2,0.4-0.6,0.4c-0.4-0.1-0.1,12.3,0.2,12.4c0.2,0.1,0.4,0.3,0.4,0.4c0,0.3,0.2,0.3,5.4,0.3
		c5.3,0,5.4,0,5.4-0.4c0-0.2,0.1-0.4,0.4-0.4c0.2,0,0.4-0.2,0.5-0.5c0.1-0.6-0.1-1.1-0.6-1c-0.2,0-0.3-0.1-0.3-0.4v-0.4h-3.5h-3.5
		v-1.6v-1.6l3.4,0l3.4-0.1l0.1-1c0.1-1.3,0.1-1.3-3.7-1.3l-3.2,0v-1.6v-1.6h3.5h3.5v-1.1c0-0.6-0.1-1.1-0.1-1.1
		C33.3,160,24.1,160,24,160 M40.6,160c-0.7,0.1-0.8,2.9-0.1,3c0.3,0,0.4,0.2,0.4,0.4s0.1,0.4,0.4,0.4c0.3,0.1,0.4,0.2,0.4,0.8
		c0,0.6,0.1,0.7,0.4,0.7c0.2,0,0.4,0.1,0.4,0.4c0,0.2,0.2,0.4,0.4,0.5c0.3,0.1,0.4,0.3,0.4,0.8c0,0.6,0.1,0.7,0.3,0.7
		c0.5,0,0.6,0.6,0.6,3c0,2.6-0.1,2.5,0.4,2.5c0.2,0,0.4,0.1,0.4,0.4c0,0.3,0.1,0.4,1.6,0.4c1.4,0,1.6,0,1.6-0.3
		c0-0.2,0.2-0.4,0.4-0.4c0.3-0.1,0.4-0.2,0.4-2.8c0-2.5,0-2.7,0.4-2.7c0.3,0,0.4-0.1,0.4-0.7c0-0.6,0.1-0.7,0.4-0.7
		c0.3,0,0.4-0.1,0.4-0.4c0-0.3,0.1-0.5,0.4-0.5c0.3,0,0.4-0.2,0.5-0.7c0-0.5,0.1-0.7,0.4-0.7c0.3,0,0.4-0.1,0.4-0.5
		c0-0.3,0.1-0.5,0.4-0.5c0.3,0,0.4-0.1,0.4-1.5c0-1.7,0.2-1.5-1.9-1.5c-1.8,0-1.9,0-1.9,0.4c0,0.2-0.1,0.4-0.4,0.4
		c-0.3,0-0.4,0.1-0.4,0.7c0,0.6-0.1,0.7-0.4,0.7c-0.3,0-0.6,0.5-0.5,0.8c0.1,0.5-0.1,0.8-0.4,0.8c-0.2,0-0.4-0.1-0.4-0.4
		c0-0.2-0.1-0.4-0.4-0.4c-0.3,0-0.4-0.1-0.4-0.4c0-0.2-0.1-0.4-0.3-0.5c-0.2-0.1-0.4-0.3-0.5-0.8c-0.1-0.6-0.2-0.7-0.5-0.7
		c-0.2,0-0.4-0.1-0.4-0.4c0-0.2-0.1-0.4-0.3-0.4C42.3,160,41,160,40.6,160 M61.4,160c-0.2,0-0.3,0.2-0.3,0.4c0,0.3-0.1,0.4-0.7,0.4
		c-0.6,0-0.7,0.1-0.7,0.3c0,0.2-0.2,0.4-0.5,0.5c-0.3,0.1-0.4,0.2-0.4,0.2c0.1,0.7-0.1,1.3-0.4,1.3c-0.3,0-0.4,0.1-0.4,0.8
		c0,0.7-0.1,0.8-0.3,0.8c-0.3,0-0.3,0.2-0.4,1.8c0,1.8,0,1.9,0.3,1.9c0.3,0,0.4,0.1,0.4,1.2c0,1.1,0,1.2,0.4,1.2
		c0.3,0,0.4,0.3,0.4,1.2c0,0.1,0.2,0.3,0.4,0.3c0.3,0.1,0.4,0.2,0.4,0.5c0,0.3,0.1,0.3,0.7,0.3c0.6,0,0.7,0.1,0.7,0.4
		c0,0.4,0.1,0.4,3.8,0.4s3.8,0,3.8-0.4c0-0.3,0.1-0.4,0.5-0.4c0.3,0,0.5-0.1,0.5-0.4c0-0.2,0.1-0.4,0.4-0.4c0.3,0,0.4-0.1,0.4-0.5
		c0-0.3,0.1-0.5,0.4-0.5c0.3,0,0.4-0.1,0.4-0.7c0-0.6,0.1-0.7,0.4-0.8C72,170,72,170,72,167c0-3,0-3-0.4-3.1
		c-0.4-0.1-0.4-0.2-0.4-0.9c0-0.7-0.1-0.8-0.4-0.8c-0.2,0-0.4-0.1-0.4-0.4c0-0.2-0.1-0.4-0.4-0.4c-0.2,0-0.4-0.1-0.4-0.4
		c0-0.3-0.1-0.4-0.5-0.4c-0.3,0-0.5-0.1-0.5-0.4c0-0.3-0.1-0.4-0.5-0.4C66.1,160,61.6,160,61.4,160 M79.2,160
		c-0.1,0-0.2,0.2-0.2,0.4c0,0.2-0.1,0.4-0.4,0.4c-0.4,0-0.4,0.1-0.3,6.5l0,6.5l1.9,0.1l1.9,0.1v-3.5c0-3.4,0-3.5,0.4-3.5
		c0.3,0,0.4,0.1,0.4,0.7c0,0.6,0.1,0.7,0.4,0.8c0.3,0,0.4,0.2,0.4,0.4c0,0.2,0.1,0.4,0.4,0.4c0.3,0.1,0.4,0.2,0.4,0.8
		c0,0.6,0.1,0.7,0.4,0.7c0.2,0,0.4,0.1,0.4,0.4c0,0.2,0.1,0.4,0.4,0.4c0.3,0,0.4,0.1,0.4,0.8c0,0.6,0.1,0.8,0.4,0.9
		c0.2,0.1,0.4,0.2,0.4,0.4c0,0.2,0.4,0.3,2,0.3l2,0.1V167c0-5.4-0.1-7-0.2-7c-0.8-0.3-2.8,0-2.8,0.4c0,0.2-0.2,0.4-0.4,0.4
		c-0.5,0-0.6,0.5-0.6,3.2c0,2.2,0,2.3-0.4,2.3c-0.3,0-0.4-0.1-0.4-0.8c0-0.7-0.1-0.8-0.4-0.8c-0.2,0-0.4-0.1-0.4-0.4
		s-0.1-0.4-0.4-0.4c-0.3,0-0.4-0.1-0.4-0.5c0-0.8-0.2-1.1-0.6-1.1c-0.2,0-0.3-0.1-0.3-0.4c0-0.2-0.1-0.4-0.4-0.4
		c-0.3,0-0.4-0.1-0.4-0.7c0-0.6-0.1-0.7-0.4-0.7c-0.2,0-1,0-1.7-0.1C80,159.9,79.4,159.9,79.2,160 M98.6,160.1
		c-0.2,0.1-0.2,0.3-0.2,0.4c0.1,0.1-0.1,0.2-0.3,0.3l-0.4,0.1l0,6.1l0,6.1l0.4,0.1c0.3,0.1,0.4,0.2,0.3,0.5
		c-0.1,0.3,0.1,0.4,4.6,0.4c4.6,0,4.7,0,4.7-0.4c0-0.3,0.1-0.4,0.5-0.4c0.3,0,0.5-0.1,0.5-0.4c0-0.2,0.1-0.4,0.4-0.4
		c0.3,0,0.4-0.1,0.4-0.5c0-0.3,0.1-0.5,0.4-0.5c0.3,0,0.4-0.1,0.4-0.7c0-0.6,0.1-0.7,0.4-0.7c0.4,0,0.4-0.1,0.4-3.1
		c0-3,0-3.1-0.4-3.1c-0.3,0-0.4-0.1-0.4-0.8c0-0.7-0.1-0.8-0.4-0.8c-0.2,0-0.4-0.1-0.4-0.4c0-0.2-0.1-0.4-0.4-0.4
		c-0.2,0-0.4-0.1-0.4-0.4c0-0.3-0.1-0.4-0.5-0.4c-0.3,0-0.5-0.1-0.5-0.4c0-0.4,0.4-0.4-4.7-0.4C100.3,160,98.8,160,98.6,160.1
		 M127,160c-0.6,0.1-0.7,0.7-0.5,2.7c0,0.1,0.2,0.2,0.4,0.2c0.3,0,0.4,0.1,0.4,0.5c0,0.3,0.1,0.5,0.4,0.5c0.3,0,0.4,0.1,0.4,0.7
		s0.1,0.7,0.4,0.7c0.2,0,0.4,0.1,0.4,0.4c0,0.2,0.2,0.4,0.5,0.5c0.3,0.1,0.4,0.3,0.4,0.5c-0.1,0.7,0,1,0.4,1c0.4,0,0.4,0.1,0.4,2.7
		c0,2.6,0,2.7,0.4,2.7c0.2,0,0.4,0.1,0.4,0.4c0,0.3,0.1,0.4,1.6,0.4c1.4,0,1.6,0,1.6-0.3c0-0.2,0.2-0.4,0.4-0.4
		c0.3-0.1,0.4-0.2,0.4-2.8c0-2.5,0-2.7,0.4-2.7c0.3,0,0.4-0.1,0.4-0.7c0-0.6,0.1-0.7,0.4-0.8c0.3,0,0.4-0.2,0.5-0.5
		c0-0.3,0.2-0.4,0.4-0.4c0.3,0,0.4-0.1,0.4-0.7c0-0.6,0.1-0.7,0.4-0.7c0.3,0,0.4-0.1,0.4-0.5c0-0.3,0.1-0.5,0.4-0.5
		c0.3,0,0.4-0.1,0.4-1.5c0-1.7,0.2-1.5-1.9-1.5c-1.9,0-1.9,0-1.9,0.4c0,0.2-0.2,0.4-0.4,0.4c-0.3,0.1-0.4,0.3-0.4,0.8
		c0,0.5-0.1,0.7-0.4,0.7c-0.3,0-0.4,0.1-0.4,0.8c0,0.7-0.1,0.8-0.5,0.9c-0.4,0.1-0.5,0-0.5-0.3c0-0.3-0.1-0.4-0.4-0.4
		c-0.3,0-0.4-0.1-0.4-0.5c0-0.3-0.1-0.5-0.4-0.5c-0.3,0-0.4-0.1-0.4-0.7c0-0.5-0.1-0.7-0.4-0.8c-0.2-0.1-0.4-0.2-0.4-0.4
		c0-0.2-0.1-0.4-0.3-0.4C129,160,127.3,159.9,127,160 M147.7,160c-0.2,0.1-0.3,0.2-0.3,0.2c0,0.4-0.1,0.5-0.6,0.5
		c-0.5,0-0.7,0.1-0.7,0.3c-0.1,0.2-0.2,0.4-0.4,0.4c-0.3,0.1-0.3,0.3-0.3,0.8c0,0.6-0.1,0.7-0.4,0.8c-0.4,0.1-0.4,0.1-0.5,1
		c0,0.4-0.1,0.5-0.3,0.5c-0.3,0-0.3,0.2-0.4,1.8c0,1.7,0,1.9,0.3,1.9c0.3,0,0.4,0.3,0.4,2.1c0,0.2,0.1,0.3,0.4,0.3
		c0.4,0,0.4,0.1,0.4,0.7c0,0.6,0.1,0.8,0.4,0.8c0.2,0.1,0.4,0.2,0.4,0.4c0,0.3,0.2,0.3,0.8,0.4c0.6,0,0.8,0.1,0.8,0.4
		c0,0.5,7.6,0.5,7.7,0c0.1-0.2,0.2-0.4,0.4-0.4c0.1,0,0.3-0.2,0.4-0.4c0.1-0.2,0.2-0.4,0.4-0.4c0.2,0,0.3-0.1,0.3-0.5
		c0-0.4,0.1-0.5,0.5-0.5c0.3,0,0.4-0.1,0.4-0.1c-0.1-0.7,0.1-1.3,0.4-1.3c0.4,0,0.4-0.1,0.4-3.1c0-3,0-3.1-0.4-3.1
		c-0.3,0-0.4-0.1-0.4-0.8c0-0.6-0.1-0.8-0.5-0.8c-0.3,0-0.4-0.2-0.4-0.4c0-0.2-0.1-0.4-0.4-0.4c-0.2,0-0.4-0.1-0.4-0.4
		c0-0.2-0.1-0.4-0.3-0.4c-0.2,0-0.4-0.2-0.4-0.4c-0.1-0.2-0.3-0.4-0.5-0.4C152.6,160,147.9,160,147.7,160 M165.1,160l-0.5,0.1v5.3
		c0,5.1,0,5.3,0.4,5.4c0.3,0.1,0.4,0.3,0.4,0.8c0,0.6,0.1,0.8,0.4,0.9c0.2,0.1,0.4,0.2,0.4,0.4c0,0.2,0.2,0.3,0.4,0.3
		c0.3,0,0.4,0.2,0.4,0.4c0,0.3,0.2,0.4,3.8,0.4c3.7,0,3.8,0,3.8-0.4c0-0.3,0.1-0.4,0.6-0.4c0.3,0,0.7-0.1,0.8-0.2
		c0.1-0.1,0.2-0.5,0.2-0.8c0-0.5,0.1-0.6,0.4-0.6c0.3,0,0.4-0.1,0.4-1.1c0-0.9,0.1-1.1,0.4-1.2c0.4-0.1,0.4-0.3,0.4-4.3
		c0-4.1,0-4.2-0.4-4.2c-0.2,0-0.4-0.1-0.4-0.3c0-0.5-0.2-0.5-1.7-0.5c-2.1,0.1-2.1,0.1-2.1,0.2c0,0.1,0,2.3,0,5l0,4.9h-0.8
		c-0.7,0-0.8,0.1-0.8,0.4c0,0.2-0.1,0.4-0.3,0.4c-0.2,0-0.4-0.2-0.4-0.4c-0.1-0.3-0.3-0.4-0.8-0.4h-0.7v-4.7c0-4.5,0-4.7-0.4-4.7
		c-0.2,0-0.4-0.1-0.4-0.4c0-0.2-0.1-0.4-0.1-0.4C167.9,160,165.5,160,165.1,160 M185.1,160c-0.1,0-0.2,0.2-0.2,0.4
		c0,0.2-0.2,0.4-0.4,0.4c-0.4,0.1-0.4,0.2-0.4,6.2s0,6.1,0.4,6.2c0.2,0,0.4,0.2,0.4,0.4c0,0.3,0.1,0.4,1.6,0.4c1.4,0,1.6,0,1.6-0.4
		c0-0.2,0.1-0.4,0.4-0.4c0.3,0,0.4-0.1,0.4-2.7c0-2.6,0-2.7,0.4-2.7c0.2,0,0.4,0.1,0.4,0.4s0.1,0.4,0.4,0.4c0.2,0,0.4,0.1,0.4,0.2
		c0,0.1,0,0.3,0,0.4c0,0.1,0.2,0.3,0.4,0.3c0.3,0.1,0.4,0.2,0.4,0.8c0,0.6,0.1,0.7,0.4,0.7s0.4,0.1,0.4,0.7c0,0.6,0.1,0.7,0.4,0.8
		c0.2,0.1,0.4,0.3,0.4,0.5c0,0.2,0.2,0.4,0.4,0.4c0.3,0,0.4,0.2,0.4,0.4c0,0.3,0.1,0.3,1.5,0.3c1.4,0,1.6,0,1.6-0.4
		c0-0.2,0.1-0.4,0.4-0.4c0.2,0,0.4-0.2,0.5-0.5c0.1-0.6-0.1-1.1-0.6-1c-0.2,0-0.3-0.1-0.3-0.8c0-0.7-0.1-0.8-0.4-0.8
		c-0.3,0-0.4-0.1-0.4-0.8c0-0.5-0.1-0.8-0.3-0.8c-0.2,0-0.3-0.2-0.3-0.4c0-0.3-0.2-0.4-0.4-0.4c-0.2,0-0.4-0.1-0.4-0.4
		c0-0.3,0.1-0.4,0.7-0.4c0.6,0,0.7-0.1,0.8-0.4c0-0.3,0.2-0.4,0.4-0.4c0.3,0,0.3-0.2,0.3-2.3c0-2.3,0-2.4-0.4-2.4
		c-0.2,0-0.4-0.1-0.4-0.4s-0.1-0.4-0.4-0.4s-0.4-0.1-0.4-0.4c0-0.2-0.1-0.4-0.2-0.4C193.8,160,185.2,160,185.1,160 M214.1,160
		l-0.5,0.1v6.9v6.9h1.9h1.9V167c0-5.4,0-7-0.2-7C216.7,160,214.6,159.9,214.1,160 M225.4,160c0,0-0.1,0.2-0.1,0.4
		c0,0.2-0.1,0.3-0.4,0.3c-0.4,0-0.4,0.1-0.4,6.2c0,6.1,0,6.2,0.4,6.2c0.2,0,0.4,0.1,0.4,0.4c0,0.3,0.1,0.4,1.5,0.3l1.5-0.1l0.1-2.3
		c0-2.2,0.1-2.3,0.4-2.2c0.3,0.1,0.4,0.3,0.4,1.5c0,1.3,0,1.4,0.4,1.5c0.2,0.1,0.4,0.3,0.4,0.5c0,0.2,0,0.5,0,0.7
		c0,0.2,0.4,0.3,1.9,0.3h1.9l0.1-0.7c0-0.5,0.2-0.7,0.4-0.8c0.3-0.1,0.4-0.3,0.4-1.6c0-1.3,0-1.5,0.4-1.6c0.4-0.1,0.4,0,0.4,2.3v2.4
		h1.6c1.4,0,1.6,0,1.6-0.4c0-0.2,0.1-0.4,0.4-0.4c0.4,0,0.4-0.1,0.4-6.2c0-6,0-6.2-0.4-6.2c-0.2,0-0.4-0.1-0.4-0.4
		c-0.1-0.6-4.4-0.6-4.5,0c0,0.2-0.2,0.4-0.5,0.4c-0.4,0.1-0.4,0.2-0.4,1.1c0,0.9-0.1,1.1-0.4,1.2c-0.2,0.1-0.4,0.3-0.4,0.4
		c0.2,1.3,0,2.7-0.4,2.7c-0.3,0-0.4-0.1-0.4-1.5c0-1.3,0-1.5-0.4-1.6c-0.3-0.1-0.4-0.3-0.4-1.2c0-1-0.1-1.1-0.5-1.2
		c-0.2,0-0.4-0.2-0.5-0.4C229.8,160,225.7,159.7,225.4,160 M250,160c-0.5,0.1-0.5,0.1-0.5,0.8c0,0.5-0.1,0.7-0.3,0.7
		c-0.4,0-0.7,0.6-0.5,1.2c0.1,0.4,0,0.5-0.3,0.5c-0.4,0.1-0.4,0.2-0.5,1.2c-0.1,0.9-0.1,1.1-0.4,1.1c-0.3,0-0.3,0.1-0.3,0.8
		c0,0.7-0.1,0.8-0.4,0.8c-0.3,0-0.4,0.1-0.4,1.2c0,1.1,0,1.2-0.4,1.2c-0.3,0-0.4,0.2-0.4,0.5c0,0.8-0.1,0.9-0.4,1
		c-0.3,0.1-0.4,0.2-0.3,1.5l0.1,1.4l1.9,0.1c1.8,0,1.9,0,1.9-0.3c0-0.2,0.1-0.4,0.3-0.4c0.4,0,0.6-0.6,0.6-1.5v-0.8h2.3h2.3l0.1,0.8
		c0,0.6,0.1,0.8,0.4,0.9c0.2,0.1,0.4,0.2,0.4,0.4c0.1,1.1-0.1,1.1,2,1l1.9-0.1l0.1-1.5c0.1-1.5,0-1.5-0.4-1.5
		c-0.4,0-0.5-0.1-0.5-1.1c0-1-0.1-1.1-0.4-1.1c-0.3,0-0.3-0.1-0.3-0.8c0-0.7-0.1-0.8-0.4-0.8c-0.3,0-0.4-0.1-0.4-1.1
		c0-0.9-0.1-1.1-0.3-1.1c-0.2,0-0.3-0.2-0.4-0.7c-0.1-0.6-0.2-0.7-0.5-0.8c-0.4-0.1-0.4-0.2-0.4-0.9c0-0.7-0.1-0.8-0.4-0.8
		c-0.3,0-0.4-0.1-0.4-0.7c0-0.6-0.1-0.7-0.3-0.7C252.6,160,250.4,160,250,160 M267.9,160c-0.3,0-0.5,0.2-0.5,0.4
		c0,0.3-0.2,0.4-0.8,0.4c-0.6,0-0.8,0.1-0.8,0.4c0,0.2-0.1,0.4-0.4,0.4c-0.3,0-0.4,0.1-0.4,0.8c0,0.6-0.1,0.8-0.4,0.8
		c-0.3,0-0.4,0.1-0.4,1.1c0,0.8-0.1,1.1-0.3,1.1c-0.4,0-0.6,0.5-0.6,1.7c0.1,1.4,0,1.4,0.5,1.4c0.3,0,0.4,0.1,0.4,1.2
		c0,1.1,0,1.2,0.4,1.2c0.3,0,0.4,0.1,0.4,0.7c0,0.6,0.1,0.7,0.4,0.8c0.2,0,0.4,0.2,0.4,0.3c-0.1,0.3,0.3,0.6,1,0.6
		c0.5,0,0.6,0.1,0.6,0.4c0,0.4,0.1,0.4,4.2,0.4c4.1,0,4.2,0,4.2-0.4c0-0.3,0.1-0.4,0.8-0.4c0.7,0,0.8-0.1,0.8-0.4
		c0-0.2,0.2-0.4,0.4-0.5c0.3-0.1,0.4-0.3,0.4-3.1v-3h-3.8h-3.8v1.1v1.1h1.9h1.9v0.8c0,0.7-0.1,0.8-0.4,0.8c-0.2,0-0.4,0.1-0.4,0.4
		c0,0.3-0.1,0.4-0.8,0.4c-0.7,0-0.8,0.1-0.8,0.4c0,0.3-0.1,0.4-0.7,0.4c-0.6,0-0.7-0.1-0.8-0.4c-0.1-0.2-0.3-0.4-0.5-0.4
		c-0.3,0-0.4-0.1-0.4-0.4c0-0.2-0.1-0.4-0.4-0.4c-0.2,0-0.4-0.1-0.4-0.4s-0.1-0.4-0.4-0.4c-0.3,0-0.4-0.1-0.4-2.4
		c0-2.3,0-2.4,0.4-2.4c0.2,0,0.4-0.1,0.4-0.3c0-0.2,0.2-0.4,0.4-0.4c0.2-0.1,0.4-0.2,0.4-0.5c0-0.3,0.1-0.4,0.5-0.4
		c0.3,0,0.5-0.1,0.5-0.4c0-0.3,0.1-0.4,0.7-0.4c0.6,0,0.7,0.1,0.7,0.4c0,0.2,0.1,0.4,0.3,0.4c0.2,0,0.4,0.2,0.5,0.5
		c0.1,0.3,0.2,0.5,0.5,0.5c0.2,0,0.4,0.1,0.4,0.4c0,0.2,0.1,0.4,0.4,0.4c0.2,0,0.4,0.1,0.4,0.4c0,0.3,0.1,0.4,1.6,0.4h1.6v-1.8
		c0-1.7,0-1.9-0.3-1.9c-0.2-0.1-0.4-0.2-0.4-0.4c-0.1-0.3-0.3-0.3-0.8-0.3c-0.6,0-0.7-0.1-0.7-0.4c0-0.2-0.1-0.4-0.3-0.4
		C273.8,160,268.3,160,267.9,160 M285.3,160.1c-0.1,0.1-0.2,0.2-0.2,0.2c0.1,0.4,0,0.5-0.4,0.5c-0.4,0-0.4,0.1-0.4,6.1
		c0,6,0,6.1,0.4,6.2c0.3,0.1,0.4,0.3,0.4,0.6c0,0.1,0.7,0.1,1.5,0.1c1.4,0,1.6,0,1.6-0.4c0-0.2,0.1-0.4,0.4-0.4l0.4-0.1V167v-6.1
		l-0.4-0.1c-0.2,0-0.4-0.2-0.5-0.5C288.2,160,285.8,159.7,285.3,160.1 M296.7,160.1c-0.2,0.1-0.4,0.1-0.4,0c-0.1,0-0.1,3.1-0.1,6.9
		l0,7h1.9h1.9v-3.2v-3.2l0.5,0.1c0.3,0.1,0.5,0.2,0.5,0.4c0,0.2,0.1,0.3,0.4,0.3c0.3,0,0.4,0.1,0.4,0.7c0,0.6,0.1,0.8,0.4,0.8
		c0.2,0.1,0.4,0.2,0.4,0.4c0,0.2,0.2,0.4,0.4,0.4c0.3,0,0.4,0.2,0.4,0.7c0,0.5,0.1,0.7,0.4,0.8c0.2,0.1,0.4,0.3,0.4,0.5
		c0,0.2,0.1,0.3,0.4,0.3c0.2,0,0.4,0.1,0.4,0.4c0,0.3,0.1,0.4,1.9,0.4h1.9V167c0-6.5,0-7-0.3-7c-0.3,0-2.4,0-3.1,0
		c-0.4,0-0.4,0-0.4,3.1c0,3,0,3.1-0.4,3.1c-0.2,0-0.4-0.1-0.4-0.2c-0.1-0.9-0.3-1.4-0.6-1.4c-0.2,0-0.3-0.2-0.3-0.4
		c0-0.2-0.1-0.4-0.4-0.4s-0.4-0.1-0.4-0.4c0-0.2-0.1-0.4-0.4-0.4c-0.3,0-0.4-0.1-0.4-0.7c0-0.6-0.1-0.7-0.4-0.8
		c-0.2-0.1-0.4-0.3-0.4-0.5c0-0.3-0.1-0.4-0.4-0.4c-0.3,0-0.5-0.1-0.5-0.4C299.9,160,297.6,159.7,296.7,160.1 M319.6,160
		c0,0-0.1,0.2-0.1,0.4c0,0.2-0.1,0.3-0.4,0.3c-0.3,0-0.4,0.1-0.4,0.4c0,0.9-0.1,1.1-0.4,1.1c-0.3,0-0.4,0.1-0.4,0.8
		c0,0.6-0.1,0.8-0.4,0.9c-0.3,0.1-0.4,0.3-0.4,0.7c0,0.5-0.1,0.7-0.4,0.8c-0.3,0.1-0.4,0.3-0.4,1.2c0,1,0,1.1-0.4,1.1
		c-0.2,0-0.4,0.2-0.4,0.3s0,0.5,0,0.8c0,0.3-0.2,0.5-0.4,0.6c-0.2,0.1-0.4,0.2-0.3,0.3c0.1,1,0,1.8-0.4,1.9
		c-0.3,0.1-0.4,0.3-0.4,0.8c0,0.5,0.1,0.7,0.4,0.8c0.2,0.1,0.4,0.3,0.4,0.4c0,0.3,0.2,0.3,1.6,0.3c1.4,0,1.6,0,1.6-0.4
		c0-0.2,0.1-0.4,0.4-0.4c0.3,0,0.4-0.1,0.4-0.8c0-0.7,0.1-0.8,0.4-0.8c0.2,0,0.4-0.2,0.5-0.4c0.1-0.3,0.3-0.4,2-0.4h1.9v0.7
		c0,0.6,0.1,0.7,0.4,0.7c0.3,0,0.4,0.1,0.4,0.8l0.1,0.8l1.9,0.1l1.9,0.1V172c0-1.8,0-1.9-0.4-1.9c-0.3,0-0.4-0.1-0.4-0.8
		c0-0.7,0-0.8-0.4-0.7c-0.3,0.1-0.4,0-0.4-1.1c0-1,0-1.2-0.4-1.2c-0.3,0-0.4-0.1-0.4-0.8c0-0.6-0.1-0.8-0.5-0.8
		c-0.4-0.1-0.4-0.2-0.4-1.1c0-0.9-0.1-1.1-0.4-1.2c-0.3-0.1-0.4-0.3-0.4-0.8c0-0.6-0.1-0.7-0.4-0.7c-0.2,0-0.4-0.1-0.4-0.4
		c0-0.2-0.1-0.4-0.3-0.4C322,160,319.7,160,319.6,160 M331.8,160c-0.5,0.1-0.8,0.9-0.6,2.2l0.1,0.7h2.3h2.3v5.5v5.5h1.9h1.9v-5.5
		V163l2.3-0.1l2.3-0.1l0.1-1.3c0-1,0-1.4-0.2-1.4C343.9,160,332.6,159.9,331.8,160 M350.7,160c0,0-0.1,0.2-0.1,0.4
		c0,0.2-0.1,0.3-0.4,0.3c-0.4,0-0.4,0.1-0.4,6.2c0,6.1,0,6.2,0.4,6.2c0.2,0,0.4,0.1,0.4,0.4c0,0.3,0.1,0.4,1.6,0.4
		c1.4,0,1.6,0,1.6-0.4c0-0.2,0.1-0.4,0.4-0.4c0.4,0,0.4-0.1,0.4-6.2c0-6.1,0-6.2-0.4-6.2c-0.2,0-0.4-0.1-0.4-0.4
		c0-0.2-0.1-0.4-0.1-0.4C352.8,160,350.8,160,350.7,160 M364.4,160c-0.4,0-0.6,0.1-0.6,0.4c0,0.2-0.1,0.4-0.4,0.4
		c-0.2,0-0.4,0.1-0.4,0.4s-0.1,0.4-0.4,0.4c-0.2,0-0.4,0.1-0.4,0.4c0,0.2-0.1,0.4-0.4,0.4c-0.2,0-0.4,0.2-0.4,0.3s0,0.5,0,0.8
		c0,0.4-0.1,0.5-0.4,0.5c-0.4,0-0.4,0.1-0.4,3c0,2.9,0,3,0.4,3.1c0.3,0.1,0.5,0.4,0.4,1.2c0,0.2,0.1,0.3,0.4,0.3
		c0.4,0,0.5,0.1,0.5,0.5c0,0.3,0.1,0.5,0.4,0.5c0.2,0,0.4,0.1,0.4,0.4c0,0.2,0.1,0.4,0.3,0.4c0.2,0,0.4,0.2,0.4,0.4
		c0.1,0.4,0.2,0.4,4,0.4c3.7,0,3.9,0,3.9-0.4c0-0.3,0.1-0.4,0.7-0.4c0.7,0,0.7,0,0.7-0.4c0-0.3,0.1-0.4,0.3-0.4
		c0.3,0,0.3-0.1,0.4-0.8c0-0.7,0.1-0.8,0.5-0.8c0.4,0,0.4-0.1,0.4-1.2c0-1.1,0-1.2,0.4-1.2c0.4,0,0.4-0.1,0.3-1.5
		c0-1.3-0.1-1.5-0.4-1.5c-0.3,0-0.3-0.1-0.3-1.1c0-1.1,0-1.2-0.5-1.2c-0.4,0-0.5-0.1-0.5-0.7c0-0.6-0.1-0.8-0.4-0.8
		c-0.2-0.1-0.4-0.3-0.4-0.4c0-0.3-0.1-0.3-0.7-0.3c-0.6,0-0.7-0.1-0.7-0.4c0-0.3-0.1-0.4-0.4-0.4C370,160,364.9,160,364.4,160
		 M382.2,160l-0.4,0.1l0,6.9l0,6.9l1.9-0.1l1.9-0.1l0.1-3.1l0-3.1h0.5c0.4,0,0.5,0.1,0.5,0.7c0,0.6,0.1,0.7,0.4,0.7
		c0.3,0,0.4,0.1,0.4,0.5c0,0.3,0.1,0.5,0.4,0.5c0.3,0,0.5,0.4,0.4,1.1c0,0.1,0.1,0.3,0.3,0.3c0.2,0.1,0.4,0.2,0.4,0.3
		c0,0.1,0,0.3,0,0.4c0,0.1,0.2,0.3,0.4,0.3c0.3,0,0.4,0.2,0.4,0.8v0.7h2.3h2.3V167V160l-0.4,0c-0.7,0-2.6,0-3,0
		c-0.4,0-0.4,0-0.4,3.2c0,3.1,0,3.2-0.4,3.1c-0.2-0.1-0.4-0.3-0.4-0.5c0-0.2-0.2-0.4-0.3-0.4c-0.1,0-0.3,0-0.4,0
		c-0.1,0-0.2-0.4-0.2-0.8c0-0.6-0.1-0.7-0.4-0.7c-0.2,0-0.4-0.1-0.4-0.4c0-0.2-0.1-0.4-0.4-0.4c-0.3,0-0.4-0.1-0.4-0.6
		c0-0.7-0.2-1.1-0.5-1c-0.1,0.1-0.2-0.1-0.2-0.3c0-0.3-0.2-0.4-0.5-0.5c-0.3,0-0.4-0.2-0.4-0.4c0-0.2-0.1-0.4-0.2-0.4
		C384.6,159.9,382.6,160,382.2,160 M10.6,162.6c0,0.3,0.1,0.4,0.7,0.4h0.7v0.8c0,0.7-0.1,0.8-0.4,0.8c-0.2,0-0.4,0.1-0.4,0.4
		c0,0.3-0.1,0.4-1.6,0.4H8.2v-1.6v-1.6h1.2C10.5,162.2,10.6,162.3,10.6,162.6 M191.1,162.6c0,0.3,0.1,0.4,0.7,0.4h0.7v0.8v0.8h-0.7
		c-0.6,0-0.7,0.1-0.7,0.4c0,0.3-0.1,0.4-1.2,0.4h-1.2v-1.6v-1.6h1.2C191,162.2,191.1,162.3,191.1,162.6 M65.1,163.4
		c0.2,0.4,0.3,0.5,0.9,0.5c0.5,0,0.6,0.1,0.6,0.4c0,0.2,0.1,0.4,0.4,0.4c0.3,0,0.4,0.1,0.4,0.7c0,0.6,0.1,0.7,0.4,0.8
		c0.3,0.1,0.4,0.3,0.4,0.8c0,0.7-0.1,0.8-0.6,0.7c-0.1,0-0.1,0-0.1,0.1c0.1,0.8-0.1,1.5-0.4,1.5c-0.2,0-0.4,0.1-0.4,0.4
		c0,0.3-0.1,0.4-0.7,0.4c-0.6,0-0.7,0.1-0.8,0.4c-0.1,0.2-0.3,0.4-0.5,0.4c-0.2,0-0.4-0.1-0.4-0.4c0-0.3-0.1-0.4-0.7-0.4
		c-0.7,0-0.7,0-0.8-0.7c-0.1-0.5-0.2-0.8-0.5-0.8c-0.5-0.2-0.5-3.2,0-3.2c0.3,0,0.4-0.2,0.5-0.7c0.1-0.7,0.2-0.7,0.8-0.8
		c0.5,0,0.7-0.1,0.7-0.5C64.2,162.8,64.8,162.8,65.1,163.4 M104.7,163.4c0.1,0.3,0.2,0.5,0.5,0.5c0.2,0,0.4,0.2,0.4,0.4
		c0.1,0.2,0.2,0.4,0.4,0.4c0.2,0,0.3,0.2,0.3,0.7c0,0.6,0.1,0.7,0.4,0.7c0.3,0,0.4,0.1,0.4,0.8c0,0.7-0.1,0.8-0.4,0.8
		c-0.3,0-0.4,0.1-0.4,0.8s-0.1,0.8-0.4,0.8c-0.2,0-0.4,0.1-0.4,0.4c0,0.3-0.1,0.4-0.5,0.4c-0.3,0-0.4,0.1-0.4,0.1
		c0.1,0.5-0.1,0.6-1.1,0.6h-1.1v-3.9V163h1.1C104.5,163,104.6,163,104.7,163.4 M151.4,163.3c0,0.4,0.3,0.6,1,0.6
		c0.3,0,0.4,0.1,0.4,0.4c0,0.3,0.1,0.4,0.4,0.4c0.4,0,0.4,0.1,0.4,0.7c0,0.7,0.3,1.1,0.6,0.9c0.1-0.1,0.2,0.2,0.2,0.7
		c0,0.7-0.1,0.8-0.5,0.9c-0.3,0.1-0.4,0.2-0.4,0.4c0.1,0.8,0,1.1-0.3,1.1c-0.2,0-0.3,0.2-0.4,0.4c-0.1,0.3-0.3,0.4-0.8,0.4
		c-0.6,0-0.7,0.1-0.7,0.4c0,0.3-0.1,0.4-0.5,0.4c-0.3,0-0.5-0.1-0.5-0.4c0-0.3-0.1-0.4-0.7-0.4c-0.7,0-0.7,0-0.7-0.6
		c0-0.4-0.1-0.7-0.4-0.8c-0.5-0.2-0.6-3.3-0.1-3.3c0.3,0,0.5-0.4,0.5-1c0-0.4,0.1-0.4,0.7-0.4c0.7,0,0.7,0,0.7-0.5
		c0-0.4,0.1-0.5,0.5-0.5C151.3,163,151.4,163.1,151.4,163.3 M368.5,163.4c0,0.4,0.1,0.5,0.7,0.5c0.7,0,0.7,0,0.8,0.7
		c0,0.5,0.1,0.7,0.4,0.7c0.6,0.1,0.6,3-0.1,3.3c-0.3,0.1-0.4,0.3-0.4,0.8c0,0.6,0,0.6-0.7,0.6c-0.6,0-0.7,0.1-0.7,0.4
		c0,0.3-0.1,0.4-0.5,0.4c-0.3,0-0.5-0.1-0.5-0.4c0-0.3-0.1-0.4-0.7-0.4c-0.6,0-0.7-0.1-0.7-0.4c0-0.2-0.1-0.4-0.4-0.4
		c-0.3,0-0.4-0.1-0.4-0.7c0-0.6-0.1-0.7-0.5-0.8c-0.6-0.2-0.7-1.5-0.1-1.7c0.3-0.1,0.4-0.3,0.5-0.8c0.1-0.5,0.2-0.7,0.5-0.7
		c0.2,0,0.3-0.1,0.3-0.4c0-0.2,0.1-0.4,0.4-0.4c0.3,0,0.4-0.1,0.4-0.5c0-0.4,0.1-0.5,0.8-0.5C368.5,163,368.5,163,368.5,163.4
		 M252.2,166.9c0.3,0.1,0.4,0.3,0.4,0.8v0.7h-0.8h-0.8v-0.7c0-0.6,0.1-0.7,0.4-0.8c0.2-0.1,0.4-0.3,0.4-0.6l0-0.5l0.1,0.5
		C251.9,166.6,252,166.9,252.2,166.9 M321.7,166.2c0,0.1,0,0.6,0.1,1.2l0,1.1H321c-0.9,0-1.2-0.6-0.4-0.8c0.3-0.1,0.4-0.2,0.4-0.9
		C321,166,321.7,165.6,321.7,166.2 M11.3,168.1c0,0.2,0.1,0.4,0.4,0.4c0.2,0,0.4,0.1,0.4,0.4c0,0.2,0.1,0.4,0.4,0.5
		c0.2,0.1,0.4,0.3,0.4,0.4c0,0.2-0.1,0.3-0.4,0.3c-0.2,0-0.4,0.1-0.4,0.4c0,0.2-0.1,0.4-0.4,0.4c-0.2,0-0.4,0.1-0.4,0.4
		c0,0.3-0.1,0.4-1.6,0.4H8.2v-1.9v-1.9h1.6C11.2,167.7,11.3,167.7,11.3,168.1 M65,131.9H33.6V55.6c0-4.7,3.8-8.5,8.5-8.5h14.4
		c4.7,0,8.5,3.8,8.5,8.5V131.9z"/>
	<path id="path3" class="st2" d="M209.1,44.1c-0.7,0.1-1,0.6-0.5,0.8c0.4,0.1,0.7,0,0.6-0.4c-0.1-0.1,0-0.2,0-0.2c0.1,0,0.2,0,0.2,0
		c0.3-0.1,0.7-0.1,0.6,0c-0.1,0.1-0.2,0.1-0.3,0.1c-0.3,0-0.2,0.5,0.1,0.6c0.2,0,0.3,0,0.2-0.1c-0.2-0.3,0.4-0.7,0.6-0.5
		c0.2,0.2,0.2,0.1,0.1-0.1C210.7,43.9,210.2,43.8,209.1,44.1 M210.9,44c0,0.2,0.7,0.2,1,0.1c0.3-0.1,0.2-0.1-0.3-0.2
		C211.2,43.9,210.9,43.9,210.9,44 M212.8,44c0.3,0,0.6,0.2,0.6,0.3c0,0.1,0.1,0.1,0.2,0c0.1-0.2,0.2-0.2,0.4,0
		c0.1,0.1,0.3,0.2,0.4,0.1c0.3-0.3,0-0.4-1-0.4C212.8,43.9,212.5,44,212.8,44 M215.5,44.1l0.6,0.1l-0.5,0c-0.4,0-0.4,0.1-0.2,0.1
		c0.2,0,0.5,0,0.7-0.1c0.2-0.1,1-0.2,1.9-0.2c0.8,0,1.4,0,1.4-0.1c0-0.1-1.1-0.1-2.3-0.1C215.6,43.9,215,44,215.5,44.1 M219.7,44.1
		c0,0.1,0.1,0.1,0.2,0.1c0.1-0.1,0.2,0,0.2,0.1c0,0.2,0,0.2,0.2,0c0.1-0.2,0.3-0.2,0.7-0.1c0.3,0.1,0.6,0,0.8-0.1
		c0.2-0.1-0.1-0.2-0.9-0.2C220.1,43.9,219.7,44,219.7,44.1 M222.1,44c0.1,0,0.6,0.1,1.2,0.1c0.7,0,1.1,0.1,0.9,0.2
		c-0.1,0.1-0.2,0.2,0,0.2c0.1,0,0.3-0.1,0.4-0.3c0.2-0.2,0-0.3-1.2-0.3C222.6,43.9,222,43.9,222.1,44 M225,44.6
		c0,0.5,0.1,0.6,0.7,0.3c0.4-0.2,0.1-0.8-0.4-0.8C225.1,44.1,225,44.2,225,44.6 M205.1,45c-0.1,0.1,0,0.3,0.1,0.4
		c0.2,0.2,0.2,0.2,0.1,0c-0.1-0.1,0-0.2,0.2-0.2c0.2,0,0.4-0.1,0.5-0.2c0.1-0.1-0.1-0.2-0.3-0.2C205.4,44.8,205.2,44.9,205.1,45
		 M228.7,45.2c0.1,0.2,0.4,0.4,0.6,0.4c0.2,0,0.3,0,0.1-0.1c-0.1,0-0.2-0.2-0.2-0.4c0-0.2-0.1-0.4-0.3-0.4
		C228.5,44.8,228.5,44.9,228.7,45.2 M203.5,45.7c0.1,0.1,0,0.3-0.1,0.4c-0.1,0.2-0.2,0.2-0.2,0c0-0.1-0.1-0.2-0.3-0.2
		c-0.3,0-0.4,0.3,0,0.4c0.4,0.2,1.1,0,1.2-0.2c0-0.1,0-0.1-0.1,0c-0.1,0.1-0.2,0.1-0.3,0.1c-0.1-0.1-0.1-0.2,0-0.4
		c0.2-0.2,0.2-0.3-0.1-0.3C203.5,45.5,203.4,45.6,203.5,45.7 M229.9,45.9c0.1,0.1,0.2,0.2,0.2,0.1c0.2-0.2,0.6-0.2,0.8,0.1
		c0.1,0.1,0.3,0.2,0.4,0.2c0.1,0,0.4,0.1,0.5,0.3c0.2,0.2,0.3,0.2,0.3,0.1c0-0.2,0.1-0.1,0.3,0c0.2,0.1,0.3,0.2,0.2,0
		c-0.1-0.1,0-0.3,0.1-0.3c0.1-0.1,0-0.1-0.2,0c-0.5,0.1-0.8,0-0.9-0.5c-0.1-0.2-0.3-0.3-0.9-0.3C229.9,45.6,229.8,45.7,229.9,45.9
		 M230.3,46.3c-0.2,0.1-0.2,0.2,0,0.3c0.1,0.1,0.2,0,0.2-0.1c0-0.1,0.1-0.2,0.2-0.2c0.1,0,0.1,0.1,0.1,0.2c-0.1,0.1,0,0.2,0.1,0.2
		c0.2,0,0.2-0.4-0.1-0.5C230.6,46.1,230.4,46.2,230.3,46.3 M200.5,46.6c-0.1,0.2-0.2,0.4-0.5,0.4c-0.6,0-1.2,0.3-1.1,0.7
		c0,0.3,0,0.3,0.2-0.1c0.1-0.2,0.2-0.3,0.2-0.2c0,0.1,0.1,0.1,0.2,0c0.1-0.1,0.5-0.2,0.9-0.1c0.4,0,0.6,0,0.6,0
		c-0.1-0.1,0-0.2,0.1-0.3c0.2-0.2,0.1-0.3,0-0.3c-0.1,0,0-0.1,0.2-0.2l0.5-0.1l-0.5,0C200.8,46.3,200.6,46.4,200.5,46.6 M201.9,46.7
		c0.1,0.3,0.1,0.3,0.2,0.1c0-0.1,0.2-0.3,0.3-0.4c0.1-0.1,0-0.1-0.2-0.1C201.9,46.3,201.8,46.4,201.9,46.7 M233.3,46.5
		c0.3,0.2,0.3,0.3,0.1,0.4c-0.2,0.1-0.2,0.1-0.1-0.1c0.1-0.1,0-0.2-0.1-0.2c-0.1,0-0.2,0.2-0.2,0.4c0,0.2,0.1,0.3,0.2,0.2
		c0.3-0.2,0.8,0,0.8,0.3c0,0.1,0.2,0.1,0.4-0.1c0.3-0.3,0.3-0.3-0.1-0.3c-0.3,0-0.5-0.1-0.6-0.4c-0.1-0.2-0.3-0.4-0.5-0.4
		C233,46.3,233,46.3,233.3,46.5 M234.8,47.5c-0.4,0.4-0.4,0.6,0,0.3c0.3-0.3,0.6-0.1,0.8,0.4c0.2,0.4,0.2,0.4,0.2,0
		C235.8,47.4,235.2,47,234.8,47.5 M196.9,48.3c-0.2,0.2-0.6,0.4-0.8,0.4c-0.2,0-0.4,0-0.4,0.1c0,0.1,0.8,0.2,1.1,0.1
		c0.1,0,0.2,0,0.4,0c0.2,0,0.3-0.1,0.3-0.4C197.5,47.8,197.4,47.8,196.9,48.3 M236.8,48.4c0.1,0.2,0.1,0.5,0,0.6s0.1,0,0.3-0.1
		c0.4-0.2,0.4-0.3,0.1-0.6C236.9,47.8,236.6,47.8,236.8,48.4 M238.2,49.1c0.2,0.3,0.4,0.4,0.5,0.4c0.2-0.1-0.2-0.8-0.5-0.8
		C238,48.7,238,48.8,238.2,49.1 M194.2,49.6c0,0.1,0.1,0.2,0.2,0.1c0.1-0.1,0.2,0,0.2,0.2s-0.1,0.3-0.2,0.4c-0.1,0.1-0.2,0.1-0.1,0
		c0.1-0.2-1.4,0.1-1.6,0.3c-0.1,0.1-0.1,0.3,0,0.5c0.1,0.3,0.2,0.3,0.3,0.2c0.1-0.1,0.3-0.2,0.4-0.1c0.2,0.1,0.3,0,0.2-0.3
		c0-0.3,0-0.4,0.4-0.4c0.3,0,0.6,0,0.8-0.1s0.2-0.2,0.1-0.2c-0.1,0-0.2-0.1-0.2-0.3c0-0.3,0.2-0.3,0.5,0c0.2,0.2,0.2,0.2,0.2,0
		C195.4,49.4,194.2,49.3,194.2,49.6 M239.1,49.7c0.1,0.2,0.1,0.4,0.1,0.4c0,0.2,1.1,0.3,1.2,0.2c0.1-0.1,0-0.2-0.1-0.2
		c-0.1,0-0.2-0.2-0.3-0.4c-0.1-0.2-0.3-0.4-0.6-0.4C239.1,49.4,239,49.5,239.1,49.7 M240.6,50.4c-0.1,0.1-0.1,0.3-0.1,0.4
		c0,0.2,0,0.2,0.2,0c0.1-0.2,0.2-0.2,0.3,0.1c0.1,0.5,0.6,0.1,0.6-0.4C241.6,50.3,240.9,50.2,240.6,50.4 M190.6,51.9
		c-0.1,0-0.2,0.2-0.2,0.3c0,0.1-0.2,0.3-0.4,0.3c-0.3,0-0.4,0.2-0.5,0.5c0,0.4-0.1,0.5-0.5,0.4c-0.4-0.1-0.4-0.1-0.1,0.1
		c0.4,0.2,0.8-0.2,0.8-0.7c0-0.2,0.1-0.2,0.4-0.2c0.2,0.1,0.4,0,0.4-0.1s0.1,0,0.3,0.2c0.2,0.2,0.2,0.3,0.2,0.1
		c-0.1-0.1,0-0.2,0.3-0.2c0.2,0,0.3-0.1,0.3-0.2c-0.1-0.1-0.2-0.1-0.3-0.1c-0.1,0.1-0.2-0.1-0.2-0.3C191.1,51.8,191,51.7,190.6,51.9
		 M243.1,52.2c0,0.3,0.1,0.5,0.1,0.6c0,0,0.2,0,0.3-0.2c0.3-0.2,0.3-0.2,0.2,0c-0.2,0.4,0.2,0.9,0.4,0.5c0.1-0.2,0.2-0.4,0.2-0.5
		c0-0.2-0.1-0.1-0.1,0.1c-0.1,0.3-0.1,0.2-0.3-0.3C243.7,51.7,243,51.5,243.1,52.2 M244.5,53.2c0,0.3,0,0.6,0.2,0.6
		c0.2,0.1,0.2-0.1,0.1-0.5C244.6,52.6,244.6,52.6,244.5,53.2 M188.8,54.3c0,0.1,0.1,0.2,0.2,0.2c0.1,0,0.2-0.1,0.2-0.2
		c0-0.1,0.1-0.2,0.3-0.3c0.2,0,0.1-0.1-0.2-0.1C189,54,188.8,54.1,188.8,54.3 M245.8,54.3c0,0.1,0.1,0.1,0.2,0.1
		c0.1-0.1,0.2,0,0.1,0.2c-0.1,0.2-0.1,0.4,0,0.5c0.1,0.1,0.2-0.1,0.2-0.4c0-0.4,0-0.5-0.2-0.5C245.9,54.1,245.8,54.2,245.8,54.3
		 M187.2,55.1c0.1,0.2-0.1,0.3-0.6,0.5c-0.4,0.2-0.7,0.4-0.7,0.6c0,0.4,0.3,0.3,0.8-0.2c0.3-0.3,0.4-0.4,0.3-0.3
		c-0.1,0.1,0,0.2,0.1,0.2c0.1,0,0.2-0.1,0.3-0.3c0.1-0.2,0.2-0.4,0.2-0.5c0.1-0.1,0-0.2-0.2-0.2C187.2,54.9,187.1,55,187.2,55.1
		 M246.9,55.3c0.1,0.3,0.2,0.4,0.4,0.4c0.2,0,0.3,0.1,0.3,0.4c0,0.3,0.1,0.6,0.2,0.6c0.1,0.1,0.1,0.1,0-0.1
		c-0.1-0.1,0.1-0.2,0.3-0.2c0.3,0,0.5,0.1,0.5,0.4c0,0.2,0.1,0.6,0.3,0.8c0.3,0.3,0.3,0.3,0.1-0.1c-0.2-0.3-0.2-0.4,0-0.4
		c0.1,0,0.3,0.3,0.3,0.5c0,0.2,0.2,0.4,0.4,0.4c0.2,0,0.4,0.1,0.4,0.2c0.1,0.2,0.1,0.2,0.1,0c0-0.3-1.4-1.8-2.9-3.2
		C246.8,54.8,246.8,54.8,246.9,55.3 M185.4,56.7c-0.2,0.1-0.8,1.3-0.8,1.4c0,0,0.1,0.1,0.2,0.1s0.2-0.1,0.2-0.3
		c0-0.2,0.1-0.3,0.2-0.3c0.1,0,0.1-0.1,0.1-0.2c-0.1-0.1,0-0.2,0.2-0.1c0.2,0.1,0.5,0,0.7-0.1c0.3-0.2,0.3-0.2,0-0.2
		c-0.2,0-0.3,0.1-0.3,0.2c0,0.1-0.1,0-0.1-0.2C185.6,56.7,185.5,56.6,185.4,56.7 M183.7,58.7c-0.3,0-0.4,0.2-0.4,0.5
		c0,0.3,0,0.3,0.1,0.1c0.1-0.5,0.4-0.4,0.3,0.1c0,0.3,0,0.5,0.1,0.5c0.1,0.1,0.1,0,0.1-0.2c0-0.2,0-0.5,0.1-0.7
		C184.2,58.6,184.2,58.6,183.7,58.7 M250.2,58.8c0,0,0.2,0.2,0.4,0.3c0.3,0.2,0.3,0.2,0.3-0.1c0-0.2-0.2-0.3-0.4-0.3
		C250.3,58.7,250.2,58.7,250.2,58.8 M250.9,59.8c-0.1,0.1,0,0.3,0.2,0.4c0.3,0.2,0.6,0,0.6-0.4C251.7,59.6,251,59.6,250.9,59.8
		 M181.9,60.6c0.1,0.2,0,0.4-0.3,0.5c-0.3,0.1-0.5,0.3-0.5,0.3c0,0.1-0.1,0.3-0.1,0.5c-0.1,0.3-0.1,0.3,0.2,0.1
		c0.2-0.2,0.3-0.2,0.4,0c0.2,0.3,0.5,0.2,0.3-0.1c-0.1-0.2,0-0.4,0.1-0.5c0.2-0.3,0.2-1,0-1C181.8,60.4,181.8,60.5,181.9,60.6
		 M251.5,60.5c-0.4,0.2-0.3,0.6,0.1,0.5c0.2-0.1,0.3,0,0.2,0.1c-0.1,0.1,0,0.2,0.2,0.1c0.3-0.1,0.4,0,0.4,0.3c0,0.2-0.1,0.3-0.1,0.2
		c-0.1-0.3-0.5-0.3-0.7,0c-0.1,0.1-0.1,0.2,0.1,0.1c0.1-0.1,0.4,0,0.6,0.2c0.4,0.2,0.5,0.2,0.5,0.1c0.1-0.2,0.1-0.2,0.1,0
		c0,0.1,0.1,0.2,0.2,0.2c0.3,0,0.1-0.8-0.3-1c-0.2-0.1-0.4-0.3-0.4-0.5C252.5,60.4,251.9,60.3,251.5,60.5 M180.6,62.8
		c-0.2,0.2-0.3,0.2-0.4,0c-0.1-0.1-0.1-0.1-0.1,0.2c0,0.2-0.2,0.4-0.4,0.5c-0.3,0.1-0.4,0.2-0.4,0.6c0,0.7,0.5,0.5,1-0.4
		c0.2-0.4,0.5-0.7,0.6-0.7c0.1,0,0.2,0,0.2-0.1C181.3,62.6,180.9,62.5,180.6,62.8 M254,63.8c0,0.2-0.1,0.2-0.2,0.2
		c-0.1-0.1,0,0.1,0.3,0.4c0.6,0.6,0.6,0.6,0.6-0.2c0-0.5,0-0.6-0.3-0.6C254.2,63.5,254,63.6,254,63.8 M178.8,65.1
		c-0.2,0.2-0.1,0.5,0.1,0.3c0.1-0.1,0.2,0,0.2,0.2c0,0.2-0.1,0.4-0.3,0.5s-0.3,0.2-0.3,0.3s0.1,0.1,0.3-0.1c0.2-0.2,0.3-0.3,0.4-0.3
		c0.1,0,0.1-0.2,0.1-0.5C179.3,65,179.1,64.8,178.8,65.1 M254.9,65.1c0.1,0.1,0.2,0.1,0.4,0.1c0.1-0.1,0.3,0,0.3,0.2
		c0.1,0.3,0.1,0.3,0.1,0c0-0.2-0.2-0.4-0.5-0.4C254.9,64.9,254.8,65,254.9,65.1 M255.4,66.1c0,0.2,0,0.2,0.1,0.2c0,0,0.2,0,0.3,0.2
		c0.1,0.1,0.4,0.3,0.5,0.3c0.1,0,0.2,0,0.1,0c0,0-0.3-0.2-0.5-0.5C255.5,65.9,255.4,65.9,255.4,66.1 M177.8,67
		c0,0.2-0.2,0.6-0.4,0.8c-0.4,0.4-0.5,0.6-0.1,0.7c0.2,0.1,0.2,0,0.2-0.1c-0.1-0.1,0-0.2,0.1-0.2s0.2,0.1,0.3,0.2
		c0.1,0.1,0.1,0,0-0.3c0-0.3,0-0.5,0-0.5c0.1,0,0.1-0.2,0.1-0.5c0-0.3,0-0.5-0.1-0.5C177.9,66.6,177.8,66.8,177.8,67 M178.3,67
		c-0.1,0.1,0,0.3,0.1,0.4c0.1,0.1,0.2,0,0.3-0.2c0.1-0.1,0-0.3-0.1-0.4C178.4,66.8,178.3,66.9,178.3,67 M256.2,67.1
		c-0.1,0.1,0,0.2,0.1,0.4c0.2,0.3,0.2,0.6-0.1,0.9c-0.1,0.1,0,0.1,0.2,0c0.2-0.1,0.5,0,0.6,0.1c0.4,0.3,0.3-0.3-0.1-0.7
		c-0.2-0.2-0.4-0.4-0.4-0.6C256.4,67,256.3,67,256.2,67.1 M257,69.6c-0.1,0.2-0.1,0.3,0,0.3c0.1,0,0.2,0.1,0.3,0.2
		c0,0.1,0.1,0.1,0-0.1c0-0.3,0-0.3,0.2-0.1c0.2,0.2,0.5,0.3,0.5,0.1C257.9,69.6,257.2,69.3,257,69.6 M176.7,69.6
		c-0.4,0.1-0.6,0.5-0.2,0.7c0.1,0.1,0.2,0,0.1-0.1c0-0.1,0-0.2,0.1-0.2c0.1,0,0.3-0.1,0.4-0.2c0.1-0.1,0.2-0.2,0.1-0.2
		C177.2,69.5,177,69.6,176.7,69.6 M176.2,71.1c-0.1,0.1-0.2,0.2-0.2,0.4c0,0.3,0,0.3,0.2,0c0.1-0.2,0.3-0.3,0.5-0.4
		c0.2-0.1,0.2-0.1,0-0.1C176.5,71,176.3,71,176.2,71.1 M257.8,71.3c-0.1,0.1,0,0.2,0.2,0.3c0.2,0.1,0.2,0.2,0.2,0.3
		c-0.1,0.1,0,0.1,0.2-0.1c0.3-0.4,0.3-0.4,0.3,0c0,0.2,0,0.3,0.1,0.1C258.9,71.5,258,70.9,257.8,71.3 M175.4,72.8
		c0,0.5-0.1,0.7-0.4,0.8c-0.3,0.1-0.4,0.3-0.3,0.8c0,0.6,0.1,0.7,0.3,0.5c0.2-0.1,0.2-0.3,0.1-0.4c-0.1-0.2-0.1-0.4,0.2-0.7
		c0.3-0.3,0.4-0.7,0.3-1.1l-0.1-0.6L175.4,72.8 M258.6,73.5c0,0.3,0.9,1.3,0.9,1c0-0.1-0.1-0.2-0.2-0.2c-0.1,0-0.2-0.1-0.2-0.2
		c0-0.1-0.1-0.3-0.3-0.5C258.7,73.4,258.6,73.4,258.6,73.5 M175.3,74.1c-0.1,0.1-0.1,0.3,0.1,0.4c0.3,0.3,0.4,0.1,0.2-0.3
		C175.5,73.9,175.4,73.9,175.3,74.1 M259,75c-0.2,0.1-0.2,0.2,0,0.2c0.1,0,0.2,0.1,0.1,0.2c-0.1,0.1,0,0.2,0.1,0.1
		c0.1-0.1,0.2,0,0.2,0.2c0,0.2,0.1,0.2,0.1,0.1c0.1-0.1,0-0.3-0.1-0.5c-0.2-0.2-0.1-0.3,0-0.3c0.1-0.1,0.2-0.1,0.1-0.1
		C259.3,74.8,259.1,74.9,259,75 M174,76.3c-0.1,0.2-0.1,0.6,0,0.8c0.1,0.2,0.1,0.2,0.1-0.1c0-0.3,0.1-0.5,0.3-0.6
		c0.2-0.1,0.2-0.2,0.2-0.3C174.4,75.8,174.1,75.9,174,76.3 M259.6,76.3c-0.1,0.2-0.2,0.4,0,0.4c0.1,0,0.2-0.1,0.2-0.2
		c0-0.4,0.3-0.2,0.4,0.2c0.1,0.3,0.1,0.2,0.1-0.2C260.3,75.8,259.9,75.7,259.6,76.3 M259.8,79c-0.1,0.1,0,0.2,0.2,0.1
		c0.4-0.1,0.4-0.1,0.1,0.5c-0.1,0.3-0.1,0.3,0,0.3c0.1-0.1,0.2,0,0.2,0.2c0,0.2,0.1,0.3,0.2,0.3c0.1,0,0.1-0.1,0.1-0.2
		c-0.1-0.2,0-0.1,0.2,0c0.3,0.3,0.4,0.5,0.2,0.3c-0.1,0-0.3,0-0.4,0.1c-0.2,0.1-0.1,0.2,0.3,0.2c0.5,0.1,0.5,0.1,0.4-0.6
		C261,79.3,260.1,78.5,259.8,79 M173.3,79.7c-0.1,0.3,0,0.5,0.1,0.6c0.4,0.2,0.7,0,0.6-0.4c0-0.2-0.1-0.5-0.1-0.5
		C173.9,79,173.4,79.2,173.3,79.7 M173.2,80.8c0,0.2,0.1,0.3,0.2,0.3c0.1,0,0.2-0.1,0.2-0.3s-0.1-0.3-0.2-0.3
		C173.3,80.5,173.2,80.6,173.2,80.8 M260.9,81.2c0.1,0.1,0,0.2-0.1,0.2c-0.2,0-0.2,0,0,0.1c0.2,0.1,0.2,0.7,0,0.9
		c-0.1,0.1-0.1,0.2-0.1,0.3c0,0.1,0.1,0.1,0.2-0.1c0.2-0.2,0.2-0.2,0.1,0.1c0,0.2,0,0.5,0,0.5c0.1,0,0.2-0.4,0.2-1.1
		c0-0.8,0-1.2-0.2-1.2C260.9,81,260.8,81.1,260.9,81.2 M260.8,84.4c0,0.2-0.1,0.2-0.2,0.2c-0.3-0.2-0.2,0,0.2,0.3
		c0.3,0.3,0.3,0.3,0.4-0.2c0-0.3-0.1-0.5-0.2-0.5C260.9,84.1,260.8,84.3,260.8,84.4 M261.1,88c0,0.6,0,0.8,0.1,0.5c0-0.3,0-0.7,0-1
		C261.1,87.2,261.1,87.4,261.1,88 M261,90.9c0,0.1-0.1,0.1-0.2,0.1c-0.1-0.1-0.2,0.1-0.1,0.3c0.1,0.6,0.5,0.6,0.4,0
		C261.1,90.8,261,90.4,261,90.9 M173.4,91.6c-0.2,0.5-0.2,1,0,0.8c0.1-0.1,0.2-0.4,0.1-0.5C173.5,91.7,173.4,91.6,173.4,91.6
		 M260.8,92.7c-0.2,0.1-0.2,0.2-0.1,0.2c0.3,0,0.2,1-0.2,1.1c-0.2,0-0.3,0.1-0.3,0.2c0,0.1,0.1,0.1,0.3,0c0.2-0.1,0.3,0,0.2,0.1
		c-0.1,0.1,0,0.3,0.2,0.4c0.3,0.2,0.3,0.1,0.2-1c0-0.7,0-1.2-0.1-1.2C261.1,92.6,261,92.6,260.8,92.7 M173.2,95.1
		c0,0.1,0.2,0.2,0.4,0.4c0.4,0.2,0.3,0.6,0,0.6c-0.1,0-0.1-0.1-0.1-0.2c0.1-0.1,0-0.2-0.1-0.2s-0.2,0.1-0.2,0.3
		c0,0.5,0.2,0.8,0.6,0.8c0.2,0,0.3,0.1,0.2,0.3c-0.1,0.2,0,0.3,0.1,0.3c0.1,0,0.2-0.1,0.1-0.3c0-0.2-0.1-0.3-0.1-0.3
		s-0.1-0.2-0.1-0.5c0-0.3-0.1-0.6-0.1-0.6C173.9,95.3,173.2,94.9,173.2,95.1 M260.2,95.7c-0.1,0.8,0.1,1.1,0.5,0.9
		c0.3-0.1,0.3-0.8-0.1-0.7c-0.1,0-0.2,0-0.2-0.1c0-0.1,0.2-0.1,0.4-0.1c0.3,0.1,0.4,0,0.4-0.3c0-0.2-0.1-0.4-0.2-0.4
		c-0.1,0-0.2,0.1-0.2,0.2c0,0.1-0.1,0.1-0.3,0C260.4,95.1,260.3,95.2,260.2,95.7 M174.1,98.4c-0.3,0.5,0,1.6,0.4,1.7l0.4,0.1
		l-0.4-0.4c-0.3-0.3-0.3-0.5-0.3-0.9C174.3,98.3,174.2,98,174.1,98.4 M259.6,99.8c0.1,0.3,0.5,0.2,0.6,0c0-0.1-0.1-0.2-0.3-0.2
		C259.7,99.6,259.6,99.7,259.6,99.8 M174.7,101.3c0,0.6,0.1,0.9,0.2,0.9c0.1-0.1,0.2,0,0.2,0.1c0,0.1,0.1,0.2,0.3,0.2
		c0.2,0,0.3-0.2,0.2-0.4c0-0.2-0.1-0.4-0.2-0.4c-0.1,0.1-0.1,0.2,0,0.3c0.1,0.1,0,0.1-0.2-0.1c-0.2-0.3-0.2-0.4-0.1-0.5
		c0.2-0.1,0.2-0.2,0-0.3c-0.1-0.1-0.2-0.3-0.3-0.4C174.7,100.4,174.7,100.8,174.7,101.3 M259.4,101.8c0,0.1-0.1,0.2-0.2,0.2
		c-0.1,0-0.2,0.1-0.3,0.2c0,0.1,0,0.2,0.2,0.2c0.3,0,0.6-0.5,0.4-0.7C259.4,101.7,259.4,101.7,259.4,101.8 M175.4,103
		c0,0.3,0.1,0.5,0.3,0.5c0.2,0,0.2-0.1,0-0.3c-0.1-0.2-0.2-0.3-0.2-0.4c0,0,0-0.1,0-0.2C175.4,102.6,175.4,102.8,175.4,103
		 M258.6,103.1c0,0.2,0,0.4,0,0.5c0,0.1,0,0.1-0.1,0.2c-0.4,0-0.8,0.2-0.9,0.3c-0.1,0.1,0.2,0.1,0.5,0c0.5-0.1,0.6-0.1,0.4,0.2
		c-0.1,0.1-0.3,0.2-0.4,0.2c-0.1,0-0.1,0-0.1,0.1c0,0.3,0.7,0.2,0.8-0.1c0.1-0.1,0.1-0.6,0-1C258.7,103,258.7,102.9,258.6,103.1
		 M175.6,104.1c0,0.5,0.6,0.6,0.8,0.2c0.1-0.2,0.1-0.2-0.2-0.1c-0.2,0.2-0.3,0.2-0.3-0.1c0-0.2-0.1-0.3-0.2-0.4
		C175.7,103.8,175.6,103.9,175.6,104.1 M176.3,106c0,0.1,0.2,0.3,0.4,0.4c0.3,0.2,0.4,0.2,0.4-0.2c0-0.2-0.1-0.3-0.1-0.2
		c-0.1,0.2-0.2,0.2-0.4,0C176.4,105.9,176.3,105.9,176.3,106 M257.4,106.1c-0.1,0.1-0.2,0.1-0.3,0.1c-0.1-0.1-0.1,0-0.1,0.2
		c0.1,0.3,0.8,0,0.8-0.3C257.9,105.8,257.6,105.9,257.4,106.1 M177,107.4c0,0.2,0.2,0.5,0.4,0.7c0.2,0.2,0.4,0.5,0.4,0.7
		c0,0.3,0.9,1.3,1,1.1c0,0-0.2-0.3-0.4-0.6c-0.4-0.4-0.5-0.5-0.2-0.7c0.2-0.1,0.2-0.2,0-0.2c-0.2,0-0.2-0.1-0.2-0.4
		c0.1-0.2,0-0.4,0-0.3c-0.3,0-0.6,0-0.5-0.2c0-0.1,0-0.2-0.2-0.4C177.1,107,177,107,177,107.4 M256.4,107.6
		c-0.1,0.1-0.2,0.3-0.1,0.4c0.1,0.1,0,0.2-0.1,0.2c-0.1,0-0.2,0.1,0,0.2c0.3,0.2,0.7-0.2,0.9-0.8c0.1-0.3,0.1-0.4,0-0.2
		c-0.1,0.1-0.2,0.2-0.3,0.2c-0.1,0-0.1-0.1-0.1-0.2C256.9,107.3,256.7,107.3,256.4,107.6 M255.5,109.2c-0.2,0.1-0.2,0.2,0,0.2
		c0.1,0,0.2,0.2,0.1,0.4l-0.1,0.4l0.2-0.4c0.1-0.2,0.3-0.4,0.5-0.5c0.2,0,0.2-0.1-0.1-0.2C255.9,109.1,255.6,109.1,255.5,109.2
		 M178.7,110.6c0,0.2,0.1,0.3,0.3,0.3c0.2,0,0.3,0,0.1-0.3c-0.1-0.1-0.3-0.3-0.3-0.3S178.7,110.4,178.7,110.6 M179.7,111.4
		c-0.4,0.5-0.4,1,0.1,1.1c0.2,0.1,0.4,0.2,0.4,0.4c0,0.2,0.1,0.3,0.2,0.3c0.2,0,0.2-0.9,0-1.2c-0.1-0.1-0.1-0.3,0-0.4
		c0.1-0.1,0-0.2-0.1-0.2c-0.1,0-0.2-0.1-0.1-0.2C180.2,110.9,180.1,111,179.7,111.4 M180.7,111.7c0,0.1,0,0.3-0.1,0.5
		c0,0.2,0,0.4,0.1,0.4c0.1,0,0.1,0.2,0.1,0.4c0.1,1.1,0.3,1.6,0.6,1.6c0.2,0,0.4-0.1,0.4-0.2c0-0.1,0.1-0.1,0.2-0.1
		c0.1,0.1,0.2,0,0.2,0c0-0.1-0.3-0.3-0.6-0.5c-0.3-0.2-0.4-0.3-0.2-0.2c0.4,0.1,0.4,0.1,0-0.2c-0.2-0.1-0.3-0.3-0.2-0.4
		c0.1-0.1,0-0.3-0.1-0.6c-0.1-0.3-0.2-0.6-0.2-0.7s0-0.2,0-0.2C180.8,111.6,180.7,111.6,180.7,111.7 M254.1,111.7
		c-0.2,0.1-0.4,0.1-0.5,0.1c-0.1,0-0.1,0.1,0,0.3c0.2,0.3,0.1,0.4-0.1,0.4c-0.2,0-0.2,0.1-0.1,0.2c0.3,0.2,1.4-0.4,1.4-0.8
		C254.8,111.5,254.7,111.5,254.1,111.7 M253,113c0,0.2,0.1,0.3,0.2,0.3c0.1,0,0.3,0,0.5,0s0.4-0.1,0.4-0.2c0-0.1-0.1-0.2-0.3-0.1
		c-0.2,0.1-0.4,0-0.5-0.1C253,112.7,253,112.7,253,113 M252.8,113.9c-0.4,0.1-0.5,0.2-0.4,0.7c0,0.1-0.1,0-0.2-0.1
		c-0.2-0.3-0.3-0.3-0.4,0c-0.1,0.2-0.2,0.4-0.2,0.6c-0.1,0.1,0,0.2,0.1,0.2c0.1,0,0.2-0.1,0.2-0.3c0-0.2,0.1-0.2,0.3-0.2
		c0.2,0.1,0.2,0.1,0.1,0.2c-0.2,0.1-0.2,0.2,0,0.2c0.2,0.1-0.4,0.2-0.9,0.1c-0.2,0-0.6,0.6-0.5,0.8c0.1,0.2,0.8,0.2,0.8-0.1
		c0-0.1-0.1-0.1-0.2-0.1c-0.1,0.1-0.1,0-0.1-0.2c0.1-0.2,0.3-0.3,0.6-0.3c0.3,0,0.5-0.2,0.5-0.4c0-0.2,0.2-0.4,0.4-0.5
		c0.2-0.1,0.4-0.3,0.4-0.5c0-0.2,0-0.4,0-0.4C253.2,113.8,253,113.8,252.8,113.9 M181.9,114.8c-0.3,0.3-0.1,0.8,0.2,0.8
		c0.4,0,0.6-0.3,0.3-0.4c-0.1-0.1-0.3,0-0.4,0.1c-0.1,0.1-0.1,0,0-0.2C182.1,114.7,182.1,114.6,181.9,114.8 M183.3,116.3
		c0,0.1,0.1,0.2,0.2,0.3c0.1,0.1,0.1,0.2,0,0.3c-0.2,0.1-0.2,0.2,0.1,0.2c0.5,0,0.5-0.2,0.1-0.6
		C183.4,116.3,183.3,116.2,183.3,116.3 M184,117.4c0,0.2,0.1,0.5,0.2,0.5c0.2,0.1,0.2-0.3,0-0.6C184,117,184,117,184,117.4
		 M184.7,117.9c-0.2,0.2,0.4,1.4,0.7,1.4c0.1,0,0.2-0.1,0.2-0.2s0.1-0.2,0.2-0.1c0.1,0,0.2,0,0.1,0c-0.1,0-0.1-0.2,0-0.3
		c0.1-0.1,0-0.1-0.1-0.1c-0.3,0.2-0.8-0.1-0.9-0.5C184.9,117.9,184.8,117.8,184.7,117.9 M249.6,117.9c-0.2,0-0.3,0.2-0.3,0.3
		c0,0.3-0.3,0.4-1,0.4c-0.4,0-0.6,0-0.5,0.2c0.1,0.1,0,0.4-0.1,0.6c-0.3,0.5,0.2,0.9,0.6,0.5c0.3-0.3,0.2-0.9-0.1-0.7
		c-0.1,0-0.1,0-0.1-0.2c0-0.1,0.1-0.2,0.2-0.2c0.1,0,0.2,0.1,0.2,0.2c0,0.5,0.5,0.2,1.1-0.5c0.3-0.4,0.5-0.7,0.5-0.7
		C250,117.8,249.8,117.9,249.6,117.9 M186.1,119.4c-0.3,0.1-0.3,0.5,0.1,0.7c0.4,0.2,0.4,0.2,0.3-0.3
		C186.4,119.3,186.3,119.3,186.1,119.4 M186.7,119.7c-0.2,0.8,0.1,1.2,0.9,1.3c0.4,0.1,0.3-0.2-0.1-0.3c-0.2-0.1-0.4-0.2-0.4-0.4
		c0-0.2-0.1-0.3-0.2-0.3c-0.1,0-0.1-0.1-0.1-0.2c0.1-0.1,0.1-0.2,0-0.2S186.7,119.6,186.7,119.7 M247.4,120.1c-0.6,0.4-0.9,1-0.6,1
		c0.2,0,0.3-0.1,0.2-0.2c-0.1-0.1,0.1-0.2,0.3-0.3c0.2-0.1,0.4-0.2,0.4-0.4C247.6,119.9,247.6,119.9,247.4,120.1 M188.4,121.6
		c0.2,0.2,0.3,0.5,0.3,0.6s0.1,0.3,0.2,0.3c0.1,0,0.1-0.2,0.1-0.4c-0.1-0.3-0.1-0.4,0.1-0.3c0.2,0.1,0.3,0.2,0.3,1
		c0,0.3,0.1,0.4,0.5,0.4c0.3,0,0.5,0.1,0.5,0.4c0,0.2,0.1,0.4,0.2,0.4c0.1,0,0.4,0,0.7,0.1c0.4,0.1,0.4,0.1,0.1-0.2
		c-0.2-0.1-0.3-0.3-0.3-0.5c0-0.1-0.2-0.2-0.5-0.3c-0.7-0.2-1.1-0.6-1-1c0.1-0.3-0.4-0.8-0.8-0.7c-0.1,0.1-0.3,0-0.3-0.1
		c0-0.1-0.1-0.2-0.2-0.2C188.2,121.3,188.3,121.4,188.4,121.6 M244.4,122c-0.1,0.1,0,0.3,0.1,0.3c0.2,0.1,0.1,0.2-0.1,0.4
		c-0.2,0.2-0.3,0.2-0.2,0c0.1-0.1,0.1-0.2,0-0.2c-0.1,0-0.2,0.2-0.3,0.4c-0.1,0.2-0.2,0.4-0.3,0.4c-0.1,0-0.1-0.1-0.1-0.2
		c0.1-0.1,0-0.2-0.2-0.2c-0.1,0-0.2,0-0.2,0.1c0,0,0,0.2-0.2,0.3c-0.4,0.4-0.3,0.9,0.1,0.7c0.2-0.1,0.5-0.1,0.5-0.1
		c0.1,0,0.2-0.2,0.2-0.4c0.1-0.2,0.3-0.4,0.5-0.4c0.2,0,0.4-0.2,0.4-0.4c0-0.3,0.2-0.4,0.4-0.4c0.3,0,0.3,0,0.2-0.2
		c-0.1-0.2-0.1-0.3-0.1-0.4C245.3,121.7,244.5,121.8,244.4,122 M241.7,124.2c-0.2,0.2-0.6,0.4-0.8,0.5c-0.3,0.1-0.4,0.2-0.2,0.3
		c0.1,0,0.2,0.2,0.2,0.4c0,0.2,0.1,0.2,0.3,0.2c0.2,0,0.3-0.2,0.3-0.6c0-0.3,0.1-0.6,0.2-0.6c0.1-0.1,0.1,0,0.1,0.1
		c0,0.1,0.1,0.3,0.3,0.3c0.3,0.1,0.3,0,0.1-0.2c-0.3-0.3-0.3-0.5,0-0.5c0.1,0,0.2-0.1,0.3-0.2c0-0.1,0-0.2,0,0
		c-0.1,0.1-0.1,0.1-0.2,0C242.1,124,241.9,124,241.7,124.2 M192,124.3c-0.2,0.2-0.1,0.6,0.2,0.6c0.2,0,0.4,0.2,0.4,0.4
		c0.1,0.5,1,0.5,1,0c0-0.3-0.4-0.6-0.7-0.5c-0.1,0-0.3-0.1-0.5-0.3C192.3,124.3,192.1,124.2,192,124.3 M194.7,125.9
		c0.1,0.3,0.1,0.3-0.2,0.1c-0.2-0.2-0.3-0.2-0.3,0.1c0,0.2,0.1,0.3,0.4,0.3c0.4,0,0.4-0.1,0.2-0.3
		C194.6,125.6,194.5,125.5,194.7,125.9 M239.8,125.9c0.1,0.1,0,0.3-0.1,0.4c-0.1,0-0.1,0.1,0.1,0c0.3-0.1,0.4-0.7,0.1-0.7
		C239.8,125.7,239.8,125.8,239.8,125.9 M195.6,126.8c0.1,0.3,0.3,0.5,0.3,0.5c0.2,0,0.2-0.3,0-0.5c-0.1-0.1-0.1-0.2-0.1-0.3
		c0.1-0.1,0-0.2-0.2-0.2C195.4,126.4,195.4,126.5,195.6,126.8 M238.3,126.7c0,0.3-0.1,0.4-0.5,0.3c-0.3,0-0.5,0-0.4,0.1
		c0.1,0.1,0,0.2-0.1,0.2c-0.1,0-0.2-0.1-0.2-0.2c0-0.4-0.2,0-0.3,0.5c-0.1,0.6,0.1,0.6,0.7,0.1c0.2-0.2,0.5-0.4,0.7-0.4
		c0.2,0,0.4-0.1,0.4-0.3c0-0.2,0.1-0.3,0.2-0.3c0.1,0,0.2-0.1,0.2-0.2c0-0.1-0.1-0.2-0.3-0.2C238.4,126.4,238.3,126.5,238.3,126.7
		 M197,127.3c-0.3,0.1-0.3,0.4,0.2,0.6c0.2,0.1,0.3,0.1,0.3,0c-0.1-0.1,0-0.2,0.1-0.2C197.8,127.5,197.3,127.2,197,127.3 M198.6,128
		c-0.1,0.2,0.5,0.9,0.7,0.7c0.1-0.1,0-0.1-0.1-0.1c-0.2,0-0.2,0,0-0.2c0.2-0.2,0.2-0.2,0-0.2c-0.2,0-0.3-0.1-0.4-0.2
		C198.7,127.8,198.7,127.8,198.6,128 M234.7,127.9c0,0.6,0.5,0.9,0.8,0.5c0.3-0.4,0.2-0.6-0.1-0.3c-0.2,0.2-0.3,0.2-0.5-0.1
		C234.8,127.9,234.7,127.8,234.7,127.9 M200.5,129.1c0,0.2,0.1,0.4,0.3,0.5c0.4,0.2,0.6,0.1,0.6-0.1c0-0.1-0.1-0.2-0.2-0.1
		c-0.1,0-0.3-0.1-0.5-0.3C200.5,128.7,200.5,128.7,200.5,129.1 M233.2,129.1c0.2,0.1,0.1,0.2-0.2,0.3l-0.4,0.2l0.4,0
		c0.2,0,0.4-0.1,0.4-0.2c0-0.1,0.1-0.1,0.2-0.1c0.2,0.1,0.1,0,0-0.2c-0.1-0.2-0.3-0.3-0.5-0.3C233,129,233,129,233.2,129.1
		 M202.3,129.2c0.1,0.1,0.1,0.2,0,0.3c-0.1,0,0,0.1,0.1,0c0.1,0,0.3,0.2,0.3,0.4c0.1,0.5,1.1,0.6,1.3,0.2c0.1-0.2,0.2-0.2,0.3-0.2
		c0.1,0.1,0.2,0.1,0.1,0c-0.2-0.3-0.7-0.3-0.8,0c-0.1,0.3-0.8,0.1-0.8-0.2c0-0.1-0.1-0.3-0.3-0.5
		C202.4,129.1,202.3,129.1,202.3,129.2 M229.9,129.9c-0.1,0.2-0.2,0.4-0.3,0.4c-0.1,0-0.2-0.1-0.1-0.2c0.1-0.1,0-0.2-0.2-0.2
		c-0.1,0-0.2,0.1-0.2,0.2c0,0.1-0.1,0.2-0.2,0.2c-0.1,0-0.2,0.1-0.1,0.2c0.1,0.1,0,0.3-0.1,0.3c-0.1,0-0.2,0.1-0.2,0.2
		c0,0.3,0.6,0.2,0.7-0.2c0.1-0.2,0.3-0.4,0.5-0.4c0.3,0,0.4-0.1,0.4-0.5C230.1,129.4,230,129.4,229.9,129.9 M230.4,130.1
		c0.1,0.3,0.9,0.4,1.1,0.1c0.2-0.3-0.1-0.4-0.4-0.2c-0.2,0.2-0.3,0.2-0.6,0C230.3,129.8,230.3,129.9,230.4,130.1 M205.1,130.7
		c0,0.2,0.2,0.3,0.4,0.4c0.3,0.1,0.3,0,0.1-0.3C205.3,130.3,205,130.3,205.1,130.7 M208,130.9c-0.3,0.2-0.3,0.2-0.1,0.2
		c0.2-0.1,0.3,0,0.4,0.3c0.1,0.5,0.9,0.7,0.9,0.3c0-0.2,0.1-0.2,0.2,0c0.1,0.2,0.2,0.2,0.2,0c0-0.1,0.1-0.2,0.2-0.1
		c0.1,0.1,0.2,0,0.1-0.2c0-0.2-0.3-0.4-0.5-0.4c-0.3,0-0.4,0-0.3,0.1c0.1,0.1,0,0.1-0.3,0.1c-0.2-0.1-0.3-0.2-0.3-0.3
		C208.7,130.5,208.5,130.5,208,130.9 M225.4,131c-0.2,0.1-0.4,0.3-0.4,0.3c0,0.1-0.1,0.1-0.2,0.1c-0.1,0-0.1-0.1-0.1-0.2
		c0.1-0.2,0.1-0.2-0.2,0c-0.2,0.1-0.3,0.2-0.4,0.1c-0.1-0.1,0-0.2,0.1-0.3c0.2-0.1,0.2-0.1,0-0.1c-0.3,0-0.5,0.4-0.3,0.5
		c0.2,0.1,0.2,0.1,0,0.2c-0.2,0.1-0.2,0.2,0.1,0.2c0.2,0,0.3-0.1,0.4-0.2c0.1-0.2,0.1-0.2,0.1,0c0,0.4,1,0.3,1.3-0.1
		c0.1-0.2,0.5-0.4,0.8-0.4c0.3,0,0.5-0.1,0.5-0.2c-0.1-0.2-1.2-0.1-1.2,0.1c0,0.1-0.1,0.2-0.2,0.2c-0.1,0-0.1-0.1-0.1-0.2
		c0.1-0.1,0.1-0.2,0.1-0.2C225.8,130.8,225.6,130.9,225.4,131 M0,0"/>
	<path id="path4" class="st3" d="M45.8,47.1c0.3,0,0.7,0,0.9,0c0.2,0,0-0.1-0.5-0.1C45.7,47.1,45.5,47.1,45.8,47.1 M52,47.1
		c0.3,0,0.7,0,0.9,0c0.2,0,0-0.1-0.5-0.1C51.9,47.1,51.7,47.1,52,47.1 M105.6,47.1c0.7,0,1.8,0,2.5,0c0.7,0,0.1-0.1-1.2-0.1
		C105.5,47.1,104.9,47.1,105.6,47.1 M133.3,47.1c0.5,0,1.4,0,1.8,0c0.5,0,0-0.1-1-0.1C133.1,47.1,132.8,47.1,133.3,47.1 M7.6,160
		c1.1,0,2.8,0,3.8,0c1,0,0.1-0.1-2-0.1C7.3,159.9,6.5,160,7.6,160 M27,160c1.2,0,3.2,0,4.4,0c1.2,0,0.2-0.1-2.3-0.1
		C26.8,159.9,25.8,160,27,160 M41.7,160c0.2,0,0.5,0,0.6,0c0.2,0,0-0.1-0.3-0.1C41.7,159.9,41.6,159.9,41.7,160 M50.3,160
		c0.2,0,0.6,0,0.7,0c0.2,0,0-0.1-0.4-0.1C50.2,159.9,50,159.9,50.3,160 M63.8,160c0.5,0,1.4,0,1.9,0c0.5,0,0.1-0.1-1-0.1
		C63.7,159.9,63.3,160,63.8,160 M80.4,160c0.2,0,0.6,0,0.7,0c0.2,0,0-0.1-0.4-0.1S80.2,159.9,80.4,160 M101.2,160c0.9,0,2.3,0,3.2,0
		c0.9,0,0.2-0.1-1.6-0.1C101,159.9,100.3,160,101.2,160 M128.2,160c0.2,0,0.6,0,0.7,0c0.2,0,0-0.1-0.4-0.1
		C128.1,159.9,127.9,159.9,128.2,160 M136.6,160c0.2,0,0.6,0,0.7,0c0.2,0,0-0.1-0.4-0.1C136.5,159.9,136.4,159.9,136.6,160
		 M150.2,160c0.6,0,1.5,0,2,0c0.5,0,0-0.1-1.1-0.1C150.1,159.9,149.6,160,150.2,160 M166.4,160c0.2,0,0.6,0,0.7,0
		c0.2,0,0-0.1-0.4-0.1C166.3,159.9,166.2,159.9,166.4,160 M174.9,160c0.2,0,0.5,0,0.6,0c0.2,0,0-0.1-0.3-0.1
		C174.9,159.9,174.7,159.9,174.9,160 M187.9,160c1.1,0,2.8,0,3.8,0c1,0,0.1-0.1-2-0.1C187.6,159.9,186.8,160,187.9,160 M215.4,160
		c0.2,0,0.6,0,0.7,0c0.2,0,0-0.1-0.4-0.1C215.3,159.9,215.2,159.9,215.4,160 M226.8,160c0.5,0,1.2,0,1.6,0c0.4,0,0-0.1-0.9-0.1
		C226.7,159.9,226.4,160,226.8,160 M235.4,160c0.5,0,1.2,0,1.6,0c0.4,0,0-0.1-0.9-0.1C235.3,159.9,235,160,235.4,160 M251.4,160
		c0.3,0,0.7,0,0.9,0c0.2,0,0-0.1-0.5-0.1C251.3,159.9,251.1,159.9,251.4,160 M270.4,160c0.6,0,1.5,0,2,0c0.5,0,0-0.1-1.1-0.1
		C270.2,159.9,269.8,160,270.4,160 M286.4,160c0.2,0,0.6,0,0.8,0c0.2,0,0-0.1-0.4-0.1C286.3,159.9,286.1,159.9,286.4,160 M298.1,160
		c0.2,0,0.6,0,0.8,0c0.2,0,0-0.1-0.4-0.1S297.9,159.9,298.1,160 M306.4,160c0.2,0,0.5,0,0.6,0c0.2,0,0-0.1-0.3-0.1
		C306.4,159.9,306.2,159.9,306.4,160 M320.9,160c0.3,0,0.7,0,0.9,0c0.2,0,0-0.1-0.5-0.1C320.8,159.9,320.6,159.9,320.9,160
		 M335.2,160c1.4,0,3.8,0,5.2,0c1.4,0,0.3-0.1-2.6-0.1S333.8,160,335.2,160 M351.7,160c0.2,0,0.6,0,0.8,0c0.2,0,0-0.1-0.4-0.1
		C351.6,159.9,351.4,159.9,351.7,160 M366.9,160c0.5,0,1.4,0,1.9,0c0.5,0,0.1-0.1-1-0.1S366.3,160,366.9,160 M383.5,160
		c0.2,0,0.6,0,0.7,0c0.2,0,0-0.1-0.4-0.1C383.4,159.9,383.3,159.9,383.5,160 M391.9,160c0.2,0,0.6,0,0.7,0c0.2,0,0-0.1-0.4-0.1
		C391.8,159.9,391.7,159.9,391.9,160 M184.1,166.9c0,3.1,0,4.4,0.1,2.9c0-1.5,0-4.1,0-5.7C184.1,162.5,184.1,163.8,184.1,166.9
		 M44,170.4c0,1.2,0,1.7,0.1,1c0-0.6,0-1.6,0-2.2C44,168.6,44,169.2,44,170.4"/>
</g>
<image style="display:none;overflow:visible;" width="997" height="426" xlink:href="6B39A211.jpg"  transform="matrix(0.3921 0 0 0.3921 3.2116 9.0106)">
</image>
</svg>
