<svg id="visual" viewBox="0 0 900 600" width="900" height="600" xmlns="http://www.w3.org/2000/svg" xmlns:xlink="http://www.w3.org/1999/xlink" version="1.1"><path d="M0 493L15 492.2C30 491.3 60 489.7 90 498C120 506.3 150 524.7 180 528.8C210 533 240 523 270 518C300 513 330 513 360 515.2C390 517.3 420 521.7 450 519C480 516.3 510 506.7 540 501.2C570 495.7 600 494.3 630 498.8C660 503.3 690 513.7 720 517.3C750 521 780 518 810 509.8C840 501.7 870 488.3 885 481.7L900 475L900 601L885 601C870 601 840 601 810 601C780 601 750 601 720 601C690 601 660 601 630 601C600 601 570 601 540 601C510 601 480 601 450 601C420 601 390 601 360 601C330 601 300 601 270 601C240 601 210 601 180 601C150 601 120 601 90 601C60 601 30 601 15 601L0 601Z" fill="#F49414" stroke-linecap="round" stroke-linejoin="miter"></path></svg>